{"asset":{"version":"2.0","generator":"Blockbench 4.9.4 glTF exporter"},"scenes":[{"nodes":[1,3],"name":"blockbench_export"}],"scene":0,"nodes":[{"name":"pot"},{"translation":[0,0.05964375,0],"name":"pot","mesh":0,"children":[0],"skin":0},{"name":"lid"},{"translation":[0,0.9796875,0],"name":"lid","mesh":1,"children":[2],"skin":1}],"bufferViews":[{"buffer":0,"byteOffset":0,"byteLength":5712,"target":34962,"byteStride":12},{"buffer":0,"byteOffset":5712,"byteLength":5712,"target":34962,"byteStride":12},{"buffer":0,"byteOffset":11424,"byteLength":3808,"target":34962,"byteStride":8},{"buffer":0,"byteOffset":15232,"byteLength":3808,"target":34962,"byteStride":8},{"buffer":0,"byteOffset":19040,"byteLength":7616,"target":34962,"byteStride":16},{"buffer":0,"byteOffset":26656,"byteLength":1416,"target":34963},{"buffer":0,"byteOffset":28072,"byteLength":3336,"target":34962,"byteStride":12},{"buffer":0,"byteOffset":31408,"byteLength":3336,"target":34962,"byteStride":12},{"buffer":0,"byteOffset":34744,"byteLength":2224,"target":34962,"byteStride":8},{"buffer":0,"byteOffset":36968,"byteLength":2224,"target":34962,"byteStride":8},{"buffer":0,"byteOffset":39192,"byteLength":4448,"target":34962,"byteStride":16},{"buffer":0,"byteOffset":43640,"byteLength":780,"target":34963},{"buffer":0,"byteOffset":44420,"byteLength":64},{"buffer":0,"byteOffset":44484,"byteLength":64}],"buffers":[{"byteLength":44548,"uri":"data:application/octet-stream;base64,"}],"accessors":[{"bufferView":0,"componentType":5126,"count":476,"max":[0.24681724607944489,0.5919812917709351,0.21375000476837158],"min":[-0.24681724607944489,-0.05817499756813049,-0.21375000476837158],"type":"VEC3"},{"bufferView":1,"componentType":5126,"count":476,"max":[0.8660253882408142,1,1],"min":[-0.8660253882408142,-1,-1],"type":"VEC3"},{"bufferView":2,"componentType":5126,"count":476,"max":[0.578125,0.59375],"min":[0,0],"type":"VEC2"},{"bufferView":3,"componentType":5123,"count":476,"max":[0,0,0,0],"min":[0,0,0,0],"type":"VEC4"},{"bufferView":4,"componentType":5126,"count":476,"max":[0,1,0,0],"min":[0,1,0,0],"type":"VEC4"},{"bufferView":5,"componentType":5123,"count":708,"max":[475],"min":[0],"type":"SCALAR"},{"bufferView":6,"componentType":5126,"count":278,"max":[0.14172348380088806,0.05042999982833862,0.10865624994039536],"min":[-0.14172348380088806,-0.11898214370012283,-0.10865624994039536],"type":"VEC3"},{"bufferView":7,"componentType":5126,"count":278,"max":[0.8660253882408142,1,1],"min":[-0.8660253882408142,-1,-1],"type":"VEC3"},{"bufferView":8,"componentType":5126,"count":278,"max":[0.59765625,0.6015625],"min":[0,0],"type":"VEC2"},{"bufferView":9,"componentType":5123,"count":278,"max":[0,0,0,0],"min":[0,0,0,0],"type":"VEC4"},{"bufferView":10,"componentType":5126,"count":278,"max":[0,1,0,0],"min":[0,1,0,0],"type":"VEC4"},{"bufferView":11,"componentType":5123,"count":390,"max":[277],"min":[0],"type":"SCALAR"},{"bufferView":12,"componentType":5126,"count":1,"max":[1,0,0,0,0,1,0,0,0,0,1,0,0,0,0,1],"min":[1,0,0,0,0,1,0,0,0,0,1,0,0,0,0,1],"type":"MAT4"},{"bufferView":13,"componentType":5126,"count":1,"max":[1,0,0,0,0,1,0,0,0,0,1,0,0,0,0,1],"min":[1,0,0,0,0,1,0,0,0,0,1,0,0,0,0,1],"type":"MAT4"}],"materials":[{"pbrMetallicRoughness":{"metallicFactor":0,"roughnessFactor":1,"baseColorTexture":{"index":0}},"alphaMode":"MASK","alphaCutoff":0.05,"doubleSided":true}],"textures":[{"sampler":0,"source":0}],"samplers":[{"magFilter":9728,"minFilter":9728,"wrapS":33071,"wrapT":33071}],"images":[{"mimeType":"image/png","uri":"data:image/png;base64,"}],"meshes":[{"primitives":[{"mode":4,"attributes":{"POSITION":0,"NORMAL":1,"TEXCOORD_0":2,"JOINTS_0":3,"WEIGHTS_0":4},"indices":5,"material":0}]},{"primitives":[{"mode":4,"attributes":{"POSITION":6,"NORMAL":7,"TEXCOORD_0":8,"JOINTS_0":9,"WEIGHTS_0":10},"indices":11,"material":0}]}],"skins":[{"inverseBindMatrices":12,"joints":[0],"skeleton":0},{"inverseBindMatrices":13,"joints":[2],"skeleton":2}]}