{"asset":{"version":"2.0","generator":"Blockbench 4.9.4 glTF exporter"},"scenes":[{"nodes":[4],"name":"blockbench_export"}],"scene":0,"nodes":[{"translation":[-1.0508904535627614e-17,0.11184469843647049,1.1062004774344858e-18],"name":"LidTip"},{"translation":[1.0508904535627614e-17,0.7006553015635295,-1.1062004774344858e-18],"name":"Lid","children":[0]},{"name":"Pot","children":[1]},{"name":"Mesh","children":[2]},{"name":"Mesh","mesh":0,"children":[3],"skin":0}],"bufferViews":[{"buffer":0,"byteOffset":0,"byteLength":9048,"target":34962,"byteStride":12},{"buffer":0,"byteOffset":9048,"byteLength":9048,"target":34962,"byteStride":12},{"buffer":0,"byteOffset":18096,"byteLength":6032,"target":34962,"byteStride":8},{"buffer":0,"byteOffset":24128,"byteLength":6032,"target":34962,"byteStride":8},{"buffer":0,"byteOffset":30160,"byteLength":12064,"target":34962,"byteStride":16},{"buffer":0,"byteOffset":42224,"byteLength":2196,"target":34963},{"buffer":0,"byteOffset":44420,"byteLength":256}],"buffers":[{"byteLength":44676,"uri":"data:application/octet-stream;base64,"}],"accessors":[{"bufferView":0,"componentType":5126,"count":754,"max":[0.24681724607944489,0.8113675117492676,0.21375000476837158],"min":[-0.24681724607944489,0.001468751230277121,-0.21375000476837158],"type":"VEC3"},{"bufferView":1,"componentType":5126,"count":754,"max":[0.8660253882408142,1,1],"min":[-0.8660253882408142,-1,-1],"type":"VEC3"},{"bufferView":2,"componentType":5126,"count":754,"max":[0.59765625,0.6015625],"min":[0,0],"type":"VEC2"},{"bufferView":3,"componentType":5123,"count":754,"max":[0,2,0,0],"min":[0,1,0,0],"type":"VEC4"},{"bufferView":4,"componentType":5126,"count":754,"max":[0,1,0,0],"min":[0,1,0,0],"type":"VEC4"},{"bufferView":5,"componentType":5123,"count":1098,"max":[753],"min":[0],"type":"SCALAR"},{"bufferView":6,"componentType":5126,"count":4,"max":[1,0,0,0,0,1,0,0,0,0,1,0,0,0,1.1062005238884694e-18,1],"min":[1,0,0,0,0,1,0,0,0,0,1,0,-1.0508904511651364e-17,-0.8125,0,1],"type":"MAT4"}],"materials":[{"pbrMetallicRoughness":{"metallicFactor":0,"roughnessFactor":1,"baseColorTexture":{"index":0}},"alphaMode":"MASK","alphaCutoff":0.05,"doubleSided":true}],"textures":[{"sampler":0,"source":0}],"samplers":[{"magFilter":9728,"minFilter":9728,"wrapS":33071,"wrapT":33071}],"images":[{"mimeType":"image/png","uri":"data:image/png;base64,"}],"meshes":[{"primitives":[{"mode":4,"attributes":{"POSITION":0,"NORMAL":1,"TEXCOORD_0":2,"JOINTS_0":3,"WEIGHTS_0":4},"indices":5,"material":0}]}],"skins":[{"inverseBindMatrices":6,"joints":[3,2,1,0],"skeleton":3}]}