{"asset":{"version":"2.0","generator":"Blockbench 4.9.4 glTF exporter"},"scenes":[{"nodes":[7],"name":"blockbench_export"}],"scene":0,"nodes":[{"translation":[-1.0836333333333332,0.15636666666666676,0.000002320366455421663],"name":"Gear_1"},{"translation":[-1.2503055555555551,0.30375,0.000002320366455421663],"name":"Gear_2"},{"translation":[-1.7286333333333337,1.0938666666666643,0.0007800981442357968],"name":"Gear_3"},{"translation":[-1.3875,1.1249999999999996,0],"name":"Hammer"},{"translation":[0.000001921947541783098,0.016266679396732986,0.07903620592247107],"name":"Gemstones"},{"translation":[-0.01087818825643927,1.1999999999999997,-0.8853048579682471],"name":"SoulGems","children":[4]},{"name":"Base","children":[0,1,2,3,5]},{"translation":[0.5698012663200513,0.05581175253754045,0.26462032398068336],"name":"Base","mesh":0,"children":[6],"skin":0}],"bufferViews":[{"buffer":0,"byteOffset":0,"byteLength":56352,"target":34962,"byteStride":12},{"buffer":0,"byteOffset":56352,"byteLength":56352,"target":34962,"byteStride":12},{"buffer":0,"byteOffset":112704,"byteLength":37568,"target":34962,"byteStride":8},{"buffer":0,"byteOffset":150272,"byteLength":37568,"target":34962,"byteStride":8},{"buffer":0,"byteOffset":187840,"byteLength":75136,"target":34962,"byteStride":16},{"buffer":0,"byteOffset":262976,"byteLength":12936,"target":34963},{"buffer":0,"byteOffset":275912,"byteLength":448}],"buffers":[{"byteLength":276360,"uri":"data:application/octet-stream;base64,"}],"accessors":[{"bufferView":0,"componentType":5126,"count":4696,"max":[1.0779695510864258,2.689521312713623,0.9871208667755127],"min":[-2.5310893058776855,-0.109375,-0.9978525638580322],"type":"VEC3"},{"bufferView":1,"componentType":5126,"count":4696,"max":[1,1,1],"min":[-1,-1,-1],"type":"VEC3"},{"bufferView":2,"componentType":5126,"count":4696,"max":[0.9759019017219543,0.9609375],"min":[0,0],"type":"VEC2"},{"bufferView":3,"componentType":5123,"count":4696,"max":[0,6,0,0],"min":[0,0,0,0],"type":"VEC4"},{"bufferView":4,"componentType":5126,"count":4696,"max":[0,1,0,0],"min":[0,1,0,0],"type":"VEC4"},{"bufferView":5,"componentType":5123,"count":6468,"max":[4695],"min":[0],"type":"SCALAR"},{"bufferView":6,"componentType":5126,"count":7,"max":[1,0,0,0,0,1,0,0,0,0,1,0,1.7286332845687866,0,0.885304868221283,1],"min":[1,0,0,0,0,1,0,0,0,0,1,0,0,-1.2162666320800781,-0.0007800981402397156,1],"type":"MAT4"}],"materials":[{"pbrMetallicRoughness":{"metallicFactor":0,"roughnessFactor":1,"baseColorTexture":{"index":0}},"alphaMode":"MASK","alphaCutoff":0.05,"doubleSided":true}],"textures":[{"sampler":0,"source":0}],"samplers":[{"magFilter":9728,"minFilter":9728,"wrapS":33071,"wrapT":33071}],"images":[{"mimeType":"image/png","uri":"data:image/png;base64,"}],"meshes":[{"primitives":[{"mode":4,"attributes":{"POSITION":0,"NORMAL":1,"TEXCOORD_0":2,"JOINTS_0":3,"WEIGHTS_0":4},"indices":5,"material":0}]}],"skins":[{"inverseBindMatrices":6,"joints":[6,0,1,2,3,5,4],"skeleton":6}]}