{"asset":{"version":"2.0","generator":"Blockbench 4.9.4 glTF exporter"},"scenes":[{"nodes":[12],"name":"blockbench_export"}],"scene":0,"nodes":[{"translation":[-1.0836333333333332,0.15636666666666676,0.000002320366455421663],"name":"Gear_1"},{"translation":[-1.2503055555555551,0.30375,0.000002320366455421663],"name":"Gear_2"},{"translation":[-1.7286333333333337,1.0938666666666643,0.0007800981442357968],"name":"Gear_3"},{"translation":[-0.5625,1.375,0],"name":"Face"},{"translation":[-1.3875,1.1249999999999996,0],"name":"Hammer","children":[3]},{"translation":[0.000001921883512778777,-0.33980669911647543,0.03477014901354025],"name":"Gem1"},{"translation":[-0.29438792497177946,0.17009147286931126,0.03477016713852954],"name":"Gem2"},{"translation":[0.2943917687388051,0.17009147286931126,0.03477016807593636],"name":"Gem3"},{"translation":[-0.010878188256439492,1.1999999999999997,-0.8853048579682472],"name":"SoulGems","children":[5,6,7]},{"translation":[0.008323733679948653,0.5535632474624596,-0.014620323980683358],"name":"Anvil"},{"translation":[0.5698012663200513,0.05581175253754045,0.26462032398068336],"name":"Base","children":[0,1,2,4,8,9]},{"name":"Mesh_Forge","children":[10]},{"name":"Mesh_Forge","mesh":0,"children":[11],"skin":0}],"bufferViews":[{"buffer":0,"byteOffset":0,"byteLength":56352,"target":34962,"byteStride":12},{"buffer":0,"byteOffset":56352,"byteLength":56352,"target":34962,"byteStride":12},{"buffer":0,"byteOffset":112704,"byteLength":37568,"target":34962,"byteStride":8},{"buffer":0,"byteOffset":150272,"byteLength":37568,"target":34962,"byteStride":8},{"buffer":0,"byteOffset":187840,"byteLength":75136,"target":34962,"byteStride":16},{"buffer":0,"byteOffset":262976,"byteLength":12936,"target":34963},{"buffer":0,"byteOffset":275912,"byteLength":768}],"buffers":[{"byteLength":276680,"uri":"data:application/octet-stream;base64,"}],"accessors":[{"bufferView":0,"componentType":5126,"count":4696,"max":[1.6477707624435425,2.745333194732666,1.2517411708831787],"min":[-1.9612879753112793,-0.05356326326727867,-0.7332322597503662],"type":"VEC3"},{"bufferView":1,"componentType":5126,"count":4696,"max":[1,1,1],"min":[-1,-1,-1],"type":"VEC3"},{"bufferView":2,"componentType":5126,"count":4696,"max":[0.9917722940444946,0.9921875],"min":[0,0],"type":"VEC2"},{"bufferView":3,"componentType":5123,"count":4696,"max":[0,10,0,0],"min":[0,1,0,0],"type":"VEC4"},{"bufferView":4,"componentType":5126,"count":4696,"max":[0,1,0,0],"min":[0,1,0,0],"type":"VEC4"},{"bufferView":5,"componentType":5123,"count":6468,"max":[4695],"min":[0],"type":"SCALAR"},{"bufferView":6,"componentType":5126,"count":12,"max":[1,0,0,0,0,1,0,0,0,0,1,0,1.3801987171173096,0,0.6206845045089722,1],"min":[1,0,0,0,0,1,0,0,0,0,1,0,-0.8533148765563965,-2.555811643600464,-0.26540040969848633,1],"type":"MAT4"}],"materials":[{"pbrMetallicRoughness":{"metallicFactor":0,"roughnessFactor":1,"baseColorTexture":{"index":0}},"alphaMode":"MASK","alphaCutoff":0.05,"doubleSided":true}],"textures":[{"sampler":0,"source":0}],"samplers":[{"magFilter":9728,"minFilter":9728,"wrapS":33071,"wrapT":33071}],"images":[{"mimeType":"image/png","uri":"data:image/png;base64,"}],"meshes":[{"primitives":[{"mode":4,"attributes":{"POSITION":0,"NORMAL":1,"TEXCOORD_0":2,"JOINTS_0":3,"WEIGHTS_0":4},"indices":5,"material":0}]}],"skins":[{"inverseBindMatrices":6,"joints":[11,10,0,1,2,4,3,8,5,6,7,9],"skeleton":11}]}