{"asset":{"version":"2.0","generator":"Blockbench 4.9.4 glTF exporter"},"scenes":[{"nodes":[1],"name":"blockbench_export"}],"scene":0,"nodes":[{"translation":[-5.110967779551675e-8,0,-1.6114819977877688e-8],"name":"Grove","mesh":0},{"children":[0]}],"bufferViews":[{"buffer":0,"byteOffset":0,"byteLength":594432,"target":34962,"byteStride":12},{"buffer":0,"byteOffset":594432,"byteLength":594432,"target":34962,"byteStride":12},{"buffer":0,"byteOffset":1188864,"byteLength":396288,"target":34962,"byteStride":8},{"buffer":0,"byteOffset":1585152,"byteLength":139800,"target":34963}],"buffers":[{"byteLength":1724952,"uri":"data:application/octet-stream;base64,"}],"accessors":[{"bufferView":0,"componentType":5126,"count":49536,"max":[9.254447937011719,11.983304977416992,10.272261619567871],"min":[-10.708869934082031,-1.1672420501708984,-9.073793411254883],"type":"VEC3"},{"bufferView":1,"componentType":5126,"count":49536,"max":[1,1,1],"min":[-0.9999849796295166,-1,-1],"type":"VEC3"},{"bufferView":2,"componentType":5126,"count":49536,"max":[0.763671875,0.82421875],"min":[0,0],"type":"VEC2"},{"bufferView":3,"componentType":5123,"count":69900,"max":[49535],"min":[0],"type":"SCALAR"}],"materials":[{"pbrMetallicRoughness":{"metallicFactor":0,"roughnessFactor":1,"baseColorTexture":{"index":0}},"alphaMode":"MASK","alphaCutoff":0.05,"doubleSided":true}],"textures":[{"sampler":0,"source":0}],"samplers":[{"magFilter":9728,"minFilter":9728,"wrapS":33071,"wrapT":33071}],"images":[{"mimeType":"image/png","uri":"data:image/png;base64,"}],"meshes":[{"primitives":[{"mode":4,"attributes":{"POSITION":0,"NORMAL":1,"TEXCOORD_0":2},"indices":3,"material":0}]}]}