{"asset":{"version":"2.0","generator":"Blockbench 4.9.4 glTF exporter"},"scenes":[{"nodes":[10],"name":"blockbench_export"}],"scene":0,"nodes":[{"rotation":[0,0.2798290140309921,0,0.9600498543859287],"name":"twee_10","mesh":0},{"name":"twee_9","mesh":1},{"name":"twee_1","mesh":2},{"name":"twee_2","mesh":3},{"name":"twee_3","mesh":4},{"name":"twee_4","mesh":5},{"name":"twee_5","mesh":6},{"name":"twee_6","mesh":7},{"name":"twee_7","mesh":8},{"name":"twee_8","mesh":9},{"children":[0,1,2,3,4,5,6,7,8,9]}],"bufferViews":[{"buffer":0,"byteOffset":0,"byteLength":15624,"target":34962,"byteStride":12},{"buffer":0,"byteOffset":15624,"byteLength":15624,"target":34962,"byteStride":12},{"buffer":0,"byteOffset":31248,"byteLength":10416,"target":34962,"byteStride":8},{"buffer":0,"byteOffset":41664,"byteLength":3660,"target":34963},{"buffer":0,"byteOffset":45324,"byteLength":17616,"target":34962,"byteStride":12},{"buffer":0,"byteOffset":62940,"byteLength":17616,"target":34962,"byteStride":12},{"buffer":0,"byteOffset":80556,"byteLength":11744,"target":34962,"byteStride":8},{"buffer":0,"byteOffset":92300,"byteLength":4044,"target":34963},{"buffer":0,"byteOffset":96344,"byteLength":14928,"target":34962,"byteStride":12},{"buffer":0,"byteOffset":111272,"byteLength":14928,"target":34962,"byteStride":12},{"buffer":0,"byteOffset":126200,"byteLength":9952,"target":34962,"byteStride":8},{"buffer":0,"byteOffset":136152,"byteLength":3516,"target":34963},{"buffer":0,"byteOffset":139668,"byteLength":12240,"target":34962,"byteStride":12},{"buffer":0,"byteOffset":151908,"byteLength":12240,"target":34962,"byteStride":12},{"buffer":0,"byteOffset":164148,"byteLength":8160,"target":34962,"byteStride":8},{"buffer":0,"byteOffset":172308,"byteLength":2892,"target":34963},{"buffer":0,"byteOffset":175200,"byteLength":22008,"target":34962,"byteStride":12},{"buffer":0,"byteOffset":197208,"byteLength":22008,"target":34962,"byteStride":12},{"buffer":0,"byteOffset":219216,"byteLength":14672,"target":34962,"byteStride":8},{"buffer":0,"byteOffset":233888,"byteLength":5364,"target":34963},{"buffer":0,"byteOffset":239252,"byteLength":30936,"target":34962,"byteStride":12},{"buffer":0,"byteOffset":270188,"byteLength":30936,"target":34962,"byteStride":12},{"buffer":0,"byteOffset":301124,"byteLength":20624,"target":34962,"byteStride":8},{"buffer":0,"byteOffset":321748,"byteLength":7284,"target":34963},{"buffer":0,"byteOffset":329032,"byteLength":15768,"target":34962,"byteStride":12},{"buffer":0,"byteOffset":344800,"byteLength":15768,"target":34962,"byteStride":12},{"buffer":0,"byteOffset":360568,"byteLength":10512,"target":34962,"byteStride":8},{"buffer":0,"byteOffset":371080,"byteLength":3636,"target":34963},{"buffer":0,"byteOffset":374716,"byteLength":14784,"target":34962,"byteStride":12},{"buffer":0,"byteOffset":389500,"byteLength":14784,"target":34962,"byteStride":12},{"buffer":0,"byteOffset":404284,"byteLength":9856,"target":34962,"byteStride":8},{"buffer":0,"byteOffset":414140,"byteLength":3468,"target":34963},{"buffer":0,"byteOffset":417608,"byteLength":14496,"target":34962,"byteStride":12},{"buffer":0,"byteOffset":432104,"byteLength":14496,"target":34962,"byteStride":12},{"buffer":0,"byteOffset":446600,"byteLength":9664,"target":34962,"byteStride":8},{"buffer":0,"byteOffset":456264,"byteLength":3420,"target":34963},{"buffer":0,"byteOffset":459684,"byteLength":8688,"target":34962,"byteStride":12},{"buffer":0,"byteOffset":468372,"byteLength":8688,"target":34962,"byteStride":12},{"buffer":0,"byteOffset":477060,"byteLength":5792,"target":34962,"byteStride":8},{"buffer":0,"byteOffset":482852,"byteLength":2124,"target":34963}],"buffers":[{"byteLength":484976,"uri":"data:application/octet-stream;base64,"}],"accessors":[{"bufferView":0,"componentType":5126,"count":1302,"max":[1.0912482738494873,3.5591001510620117,0.9707621335983276],"min":[-1.2869983911514282,-0.4197279214859009,-1.066777229309082],"type":"VEC3"},{"bufferView":1,"componentType":5126,"count":1302,"max":[1,1,1],"min":[-1,-1,-1],"type":"VEC3"},{"bufferView":2,"componentType":5126,"count":1302,"max":[0.7516302466392517,0.82421875],"min":[0,0],"type":"VEC2"},{"bufferView":3,"componentType":5123,"count":1830,"max":[1301],"min":[0],"type":"SCALAR"},{"bufferView":4,"componentType":5126,"count":1468,"max":[1.2903783321380615,3.8131673336029053,1.0904651880264282],"min":[-1.2983996868133545,-0.4197279214859009,-1.1286736726760864],"type":"VEC3"},{"bufferView":5,"componentType":5126,"count":1468,"max":[0.997446596622467,1,1],"min":[-1,-1,-1],"type":"VEC3"},{"bufferView":6,"componentType":5126,"count":1468,"max":[0.763671875,0.771484375],"min":[0,0],"type":"VEC2"},{"bufferView":7,"componentType":5123,"count":2022,"max":[1467],"min":[0],"type":"SCALAR"},{"bufferView":8,"componentType":5126,"count":1244,"max":[1.093743920326233,3.963787794113159,0.8889026641845703],"min":[-1.0096193552017212,-0.4197279214859009,-0.9431928992271423],"type":"VEC3"},{"bufferView":9,"componentType":5126,"count":1244,"max":[1,1,1],"min":[-0.997446596622467,-1,-1],"type":"VEC3"},{"bufferView":10,"componentType":5126,"count":1244,"max":[0.7516302466392517,0.82421875],"min":[0,0],"type":"VEC2"},{"bufferView":11,"componentType":5123,"count":1758,"max":[1243],"min":[0],"type":"SCALAR"},{"bufferView":12,"componentType":5126,"count":1020,"max":[1.0890346765518188,3.963787794113159,0.8889026641845703],"min":[-1.289430856704712,-0.4197279214859009,-1.1116750240325928],"type":"VEC3"},{"bufferView":13,"componentType":5126,"count":1020,"max":[0.9920077323913574,1,1],"min":[-1,-1,-1],"type":"VEC3"},{"bufferView":14,"componentType":5126,"count":1020,"max":[0.7516302466392517,0.771484375],"min":[0,0],"type":"VEC2"},{"bufferView":15,"componentType":5123,"count":1446,"max":[1019],"min":[0],"type":"SCALAR"},{"bufferView":16,"componentType":5126,"count":1834,"max":[1.093743920326233,3.963787794113159,0.8889026641845703],"min":[-1.0096193552017212,-0.4197279214859009,-0.9271112084388733],"type":"VEC3"},{"bufferView":17,"componentType":5126,"count":1834,"max":[1,1,1],"min":[-0.9920077323913574,-1,-1],"type":"VEC3"},{"bufferView":18,"componentType":5126,"count":1834,"max":[0.7516302466392517,0.82421875],"min":[0,0],"type":"VEC2"},{"bufferView":19,"componentType":5123,"count":2682,"max":[1833],"min":[0],"type":"SCALAR"},{"bufferView":20,"componentType":5126,"count":2578,"max":[1.36884605884552,3.963787794113159,1.1574770212173462],"min":[-1.0096193552017212,-0.4197279214859009,-0.8431006669998169],"type":"VEC3"},{"bufferView":21,"componentType":5126,"count":2578,"max":[1,1,1],"min":[-0.997446596622467,-1,-1],"type":"VEC3"},{"bufferView":22,"componentType":5126,"count":2578,"max":[0.763671875,0.82421875],"min":[0,0],"type":"VEC2"},{"bufferView":23,"componentType":5123,"count":3642,"max":[2577],"min":[0],"type":"SCALAR"},{"bufferView":24,"componentType":5126,"count":1314,"max":[1.36884605884552,3.5554094314575195,0.8889026641845703],"min":[-1.1055837869644165,-0.4197279214859009,-1.1116750240325928],"type":"VEC3"},{"bufferView":25,"componentType":5126,"count":1314,"max":[1,1,1],"min":[-0.9920077323913574,-1,-1],"type":"VEC3"},{"bufferView":26,"componentType":5126,"count":1314,"max":[0.763671875,0.771484375],"min":[0,0],"type":"VEC2"},{"bufferView":27,"componentType":5123,"count":1818,"max":[1313],"min":[0],"type":"SCALAR"},{"bufferView":28,"componentType":5126,"count":1232,"max":[1.0099194049835205,3.679412603378296,1.2453253269195557],"min":[-1.0094006061553955,-0.4197279214859009,-1.1530826091766357],"type":"VEC3"},{"bufferView":29,"componentType":5126,"count":1232,"max":[1,1,1],"min":[-0.9990370869636536,-1,-0.9972750544548035],"type":"VEC3"},{"bufferView":30,"componentType":5126,"count":1232,"max":[0.763671875,0.82421875],"min":[0,0],"type":"VEC2"},{"bufferView":31,"componentType":5123,"count":1734,"max":[1231],"min":[0],"type":"SCALAR"},{"bufferView":32,"componentType":5126,"count":1208,"max":[1.382433533668518,3.767180919647217,0.9729132056236267],"min":[-1.2234457731246948,-0.4197279214859009,-0.9685150384902954],"type":"VEC3"},{"bufferView":33,"componentType":5126,"count":1208,"max":[1,1,0.9972750544548035],"min":[-0.9920077323913574,-1,-1],"type":"VEC3"},{"bufferView":34,"componentType":5126,"count":1208,"max":[0.763671875,0.82421875],"min":[0,0],"type":"VEC2"},{"bufferView":35,"componentType":5123,"count":1710,"max":[1207],"min":[0],"type":"SCALAR"},{"bufferView":36,"componentType":5126,"count":724,"max":[1.0099194049835205,3.1014864444732666,0.8889026641845703],"min":[-1.0094006061553955,-0.4197279214859009,-0.9271112084388733],"type":"VEC3"},{"bufferView":37,"componentType":5126,"count":724,"max":[1,1,1],"min":[-0.9920077323913574,-1,-0.9972750544548035],"type":"VEC3"},{"bufferView":38,"componentType":5126,"count":724,"max":[0.7516302466392517,0.771484375],"min":[0,0],"type":"VEC2"},{"bufferView":39,"componentType":5123,"count":1062,"max":[723],"min":[0],"type":"SCALAR"}],"materials":[{"pbrMetallicRoughness":{"metallicFactor":0,"roughnessFactor":1,"baseColorTexture":{"index":0}},"alphaMode":"MASK","alphaCutoff":0.05,"doubleSided":true}],"textures":[{"sampler":0,"source":0}],"samplers":[{"magFilter":9728,"minFilter":9728,"wrapS":33071,"wrapT":33071}],"images":[{"mimeType":"image/png","uri":"data:image/png;base64,"}],"meshes":[{"primitives":[{"mode":4,"attributes":{"POSITION":0,"NORMAL":1,"TEXCOORD_0":2},"indices":3,"material":0}]},{"primitives":[{"mode":4,"attributes":{"POSITION":4,"NORMAL":5,"TEXCOORD_0":6},"indices":7,"material":0}]},{"primitives":[{"mode":4,"attributes":{"POSITION":8,"NORMAL":9,"TEXCOORD_0":10},"indices":11,"material":0}]},{"primitives":[{"mode":4,"attributes":{"POSITION":12,"NORMAL":13,"TEXCOORD_0":14},"indices":15,"material":0}]},{"primitives":[{"mode":4,"attributes":{"POSITION":16,"NORMAL":17,"TEXCOORD_0":18},"indices":19,"material":0}]},{"primitives":[{"mode":4,"attributes":{"POSITION":20,"NORMAL":21,"TEXCOORD_0":22},"indices":23,"material":0}]},{"primitives":[{"mode":4,"attributes":{"POSITION":24,"NORMAL":25,"TEXCOORD_0":26},"indices":27,"material":0}]},{"primitives":[{"mode":4,"attributes":{"POSITION":28,"NORMAL":29,"TEXCOORD_0":30},"indices":31,"material":0}]},{"primitives":[{"mode":4,"attributes":{"POSITION":32,"NORMAL":33,"TEXCOORD_0":34},"indices":35,"material":0}]},{"primitives":[{"mode":4,"attributes":{"POSITION":36,"NORMAL":37,"TEXCOORD_0":38},"indices":39,"material":0}]}]}