{"asset":{"version":"2.0","generator":"Blockbench 4.9.4 glTF exporter"},"scenes":[{"nodes":[15],"name":"blockbench_export"}],"scene":0,"nodes":[{"translation":[-0.10109136702478724,-0.042422962530132446,-0.266760792454711],"name":"Ruins_Complete","mesh":0},{"translation":[-0.10109136702478724,-0.042422962530132446,-0.266760792454711],"name":"Wall - Full 1","mesh":1},{"translation":[-0.10109136702478724,-0.042422962530132446,-0.266760792454711],"name":"Wall - Broken 2","mesh":2},{"translation":[-0.10109136702478724,-0.042422962530132446,-0.266760792454711],"name":"Floor - Stage","mesh":3},{"translation":[-0.10109136702478724,-0.042422962530132446,-0.266760792454711],"name":"Wall - Window 1","mesh":4},{"translation":[-0.10109136702478724,-0.042422962530132446,-0.266760792454711],"name":"Wall - Broken 1","mesh":5},{"translation":[-0.10109136702478724,-0.042422962530132446,-0.266760792454711],"name":"Wall - Broken 3","mesh":6},{"translation":[-0.10109136702478724,-0.042422962530132446,-0.266760792454711],"name":"Wall - Full 3","mesh":7},{"translation":[-0.10109136702478724,-0.042422962530132446,-0.266760792454711],"name":"Wall - Window 2","mesh":8},{"translation":[-0.10109136702478724,-0.042422962530132446,-0.266760792454711],"name":"Pillar 1","mesh":9},{"translation":[-0.10109136702478724,-0.042422962530132446,-0.266760792454711],"name":"Beam 1","mesh":10},{"translation":[-0.10109136702478724,-0.042422962530132446,-0.266760792454711],"name":"Pillar 4","mesh":11},{"translation":[-0.10109136702478724,-0.042422962530132446,-0.266760792454711],"name":"Pillar 2","mesh":12},{"translation":[-0.10109136702478724,-0.042422962530132446,-0.266760792454711],"name":"Pillar 3","mesh":13},{"translation":[-0.10109136702478724,-0.042422962530132446,-0.266760792454711],"name":"Beam - Damaged","mesh":14},{"children":[0,1,2,3,4,5,6,7,8,9,10,11,12,13,14]}],"bufferViews":[{"buffer":0,"byteOffset":0,"byteLength":20256,"target":34962,"byteStride":12},{"buffer":0,"byteOffset":20256,"byteLength":20256,"target":34962,"byteStride":12},{"buffer":0,"byteOffset":40512,"byteLength":13504,"target":34962,"byteStride":8},{"buffer":0,"byteOffset":54016,"byteLength":4824,"target":34963},{"buffer":0,"byteOffset":58840,"byteLength":288,"target":34962,"byteStride":12},{"buffer":0,"byteOffset":59128,"byteLength":288,"target":34962,"byteStride":12},{"buffer":0,"byteOffset":59416,"byteLength":192,"target":34962,"byteStride":8},{"buffer":0,"byteOffset":59608,"byteLength":72,"target":34963},{"buffer":0,"byteOffset":59680,"byteLength":1368,"target":34962,"byteStride":12},{"buffer":0,"byteOffset":61048,"byteLength":1368,"target":34962,"byteStride":12},{"buffer":0,"byteOffset":62416,"byteLength":912,"target":34962,"byteStride":8},{"buffer":0,"byteOffset":63328,"byteLength":324,"target":34963},{"buffer":0,"byteOffset":63652,"byteLength":480,"target":34962,"byteStride":12},{"buffer":0,"byteOffset":64132,"byteLength":480,"target":34962,"byteStride":12},{"buffer":0,"byteOffset":64612,"byteLength":320,"target":34962,"byteStride":8},{"buffer":0,"byteOffset":64932,"byteLength":120,"target":34963},{"buffer":0,"byteOffset":65052,"byteLength":3840,"target":34962,"byteStride":12},{"buffer":0,"byteOffset":68892,"byteLength":3840,"target":34962,"byteStride":12},{"buffer":0,"byteOffset":72732,"byteLength":2560,"target":34962,"byteStride":8},{"buffer":0,"byteOffset":75292,"byteLength":960,"target":34963},{"buffer":0,"byteOffset":76252,"byteLength":1584,"target":34962,"byteStride":12},{"buffer":0,"byteOffset":77836,"byteLength":1584,"target":34962,"byteStride":12},{"buffer":0,"byteOffset":79420,"byteLength":1056,"target":34962,"byteStride":8},{"buffer":0,"byteOffset":80476,"byteLength":384,"target":34963},{"buffer":0,"byteOffset":80860,"byteLength":3024,"target":34962,"byteStride":12},{"buffer":0,"byteOffset":83884,"byteLength":3024,"target":34962,"byteStride":12},{"buffer":0,"byteOffset":86908,"byteLength":2016,"target":34962,"byteStride":8},{"buffer":0,"byteOffset":88924,"byteLength":720,"target":34963},{"buffer":0,"byteOffset":89644,"byteLength":2016,"target":34962,"byteStride":12},{"buffer":0,"byteOffset":91660,"byteLength":2016,"target":34962,"byteStride":12},{"buffer":0,"byteOffset":93676,"byteLength":1344,"target":34962,"byteStride":8},{"buffer":0,"byteOffset":95020,"byteLength":504,"target":34963},{"buffer":0,"byteOffset":95524,"byteLength":2232,"target":34962,"byteStride":12},{"buffer":0,"byteOffset":97756,"byteLength":2232,"target":34962,"byteStride":12},{"buffer":0,"byteOffset":99988,"byteLength":1488,"target":34962,"byteStride":8},{"buffer":0,"byteOffset":101476,"byteLength":540,"target":34963},{"buffer":0,"byteOffset":102016,"byteLength":720,"target":34962,"byteStride":12},{"buffer":0,"byteOffset":102736,"byteLength":720,"target":34962,"byteStride":12},{"buffer":0,"byteOffset":103456,"byteLength":480,"target":34962,"byteStride":8},{"buffer":0,"byteOffset":103936,"byteLength":144,"target":34963},{"buffer":0,"byteOffset":104080,"byteLength":288,"target":34962,"byteStride":12},{"buffer":0,"byteOffset":104368,"byteLength":288,"target":34962,"byteStride":12},{"buffer":0,"byteOffset":104656,"byteLength":192,"target":34962,"byteStride":8},{"buffer":0,"byteOffset":104848,"byteLength":72,"target":34963},{"buffer":0,"byteOffset":104920,"byteLength":720,"target":34962,"byteStride":12},{"buffer":0,"byteOffset":105640,"byteLength":720,"target":34962,"byteStride":12},{"buffer":0,"byteOffset":106360,"byteLength":480,"target":34962,"byteStride":8},{"buffer":0,"byteOffset":106840,"byteLength":144,"target":34963},{"buffer":0,"byteOffset":106984,"byteLength":720,"target":34962,"byteStride":12},{"buffer":0,"byteOffset":107704,"byteLength":720,"target":34962,"byteStride":12},{"buffer":0,"byteOffset":108424,"byteLength":480,"target":34962,"byteStride":8},{"buffer":0,"byteOffset":108904,"byteLength":144,"target":34963},{"buffer":0,"byteOffset":109048,"byteLength":720,"target":34962,"byteStride":12},{"buffer":0,"byteOffset":109768,"byteLength":720,"target":34962,"byteStride":12},{"buffer":0,"byteOffset":110488,"byteLength":480,"target":34962,"byteStride":8},{"buffer":0,"byteOffset":110968,"byteLength":144,"target":34963},{"buffer":0,"byteOffset":111112,"byteLength":816,"target":34962,"byteStride":12},{"buffer":0,"byteOffset":111928,"byteLength":816,"target":34962,"byteStride":12},{"buffer":0,"byteOffset":112744,"byteLength":544,"target":34962,"byteStride":8},{"buffer":0,"byteOffset":113288,"byteLength":192,"target":34963}],"buffers":[{"byteLength":113480,"uri":"data:application/octet-stream;base64,"}],"accessors":[{"bufferView":0,"componentType":5126,"count":1688,"max":[4.578388214111328,6.308047771453857,1.8761358261108398],"min":[-4.401586055755615,-0.03570203855633736,-3.72152042388916],"type":"VEC3"},{"bufferView":1,"componentType":5126,"count":1688,"max":[1,1,1],"min":[-1,-1,-1],"type":"VEC3"},{"bufferView":2,"componentType":5126,"count":1688,"max":[0.9810768365859985,0.623046875],"min":[0,0],"type":"VEC2"},{"bufferView":3,"componentType":5123,"count":2412,"max":[1687],"min":[0],"type":"SCALAR"},{"bufferView":4,"componentType":5126,"count":24,"max":[1.6635913848876953,3.1674230098724365,0.42301079630851746],"min":[-1.4614086151123047,0.04242296144366264,0.11051078885793686],"type":"VEC3"},{"bufferView":5,"componentType":5126,"count":24,"max":[1,1,1],"min":[-1,-1,-1],"type":"VEC3"},{"bufferView":6,"componentType":5126,"count":24,"max":[0.5546875,0.56640625],"min":[0.103515625,0.146484375],"type":"VEC2"},{"bufferView":7,"componentType":5123,"count":36,"max":[23],"min":[0],"type":"SCALAR"},{"bufferView":8,"componentType":5126,"count":114,"max":[1.454360008239746,1.6284502744674683,0.4235495924949646],"min":[-1.670639991760254,0.04511692747473717,0.095424585044384],"type":"VEC3"},{"bufferView":9,"componentType":5126,"count":114,"max":[1,0.8872168064117432,1],"min":[-0.8930596113204956,-1,-1],"type":"VEC3"},{"bufferView":10,"componentType":5126,"count":114,"max":[0.5546772480010986,0.5826822519302368],"min":[0.02734375,0],"type":"VEC2"},{"bufferView":11,"componentType":5123,"count":162,"max":[113],"min":[0],"type":"SCALAR"},{"bufferView":12,"componentType":5126,"count":40,"max":[3.2885913848876953,0.32367295026779175,1.5271774530410767],"min":[-3.0864086151123047,0.011172962374985218,-0.8790725469589233],"type":"VEC3"},{"bufferView":13,"componentType":5126,"count":40,"max":[0.6459422707557678,1,1],"min":[-0.6459422707557678,-1,-1],"type":"VEC3"},{"bufferView":14,"componentType":5126,"count":40,"max":[0.6184935569763184,0.431640625],"min":[0,0],"type":"VEC2"},{"bufferView":15,"componentType":5123,"count":60,"max":[39],"min":[0],"type":"SCALAR"},{"bufferView":16,"componentType":5126,"count":320,"max":[1.6501929759979248,3.1717727184295654,0.42301079630851746],"min":[-1.4748070240020752,0.04677281528711319,0.11051078885793686],"type":"VEC3"},{"bufferView":17,"componentType":5126,"count":320,"max":[1,0.9997254610061646,1],"min":[-1,-1,-1],"type":"VEC3"},{"bufferView":18,"componentType":5126,"count":320,"max":[0.5546875,0.5817546844482422],"min":[0,0],"type":"VEC2"},{"bufferView":19,"componentType":5123,"count":480,"max":[319],"min":[0],"type":"SCALAR"},{"bufferView":20,"componentType":5126,"count":132,"max":[1.9619829654693604,2.597294330596924,0.4248490333557129],"min":[-1.1755170822143555,0.037919286638498306,0.1123490259051323],"type":"VEC3"},{"bufferView":21,"componentType":5126,"count":132,"max":[1,0.9150983691215515,1],"min":[-1,-1,-1],"type":"VEC3"},{"bufferView":22,"componentType":5126,"count":132,"max":[0.5546875,0.5721621513366699],"min":[0.0002687933447305113,0.099609375],"type":"VEC2"},{"bufferView":23,"componentType":5123,"count":192,"max":[131],"min":[0],"type":"SCALAR"},{"bufferView":24,"componentType":5126,"count":252,"max":[1.6293171644210815,3.160820245742798,0.4227587878704071],"min":[-1.4956828355789185,-0.026679860427975655,0.11025877296924591],"type":"VEC3"},{"bufferView":25,"componentType":5126,"count":252,"max":[1,0.9861119389533997,1],"min":[-1,-0.9396060705184937,-1],"type":"VEC3"},{"bufferView":26,"componentType":5126,"count":252,"max":[0.54296875,0.5688794851303101],"min":[0,0],"type":"VEC2"},{"bufferView":27,"componentType":5123,"count":360,"max":[251],"min":[0],"type":"SCALAR"},{"bufferView":28,"componentType":5126,"count":168,"max":[1.721687912940979,3.1749513149261475,0.42301079630851746],"min":[-1.403312087059021,0.04995137080550194,0.11051078885793686],"type":"VEC3"},{"bufferView":29,"componentType":5126,"count":168,"max":[0.999769926071167,1,1],"min":[-1,-1,-1],"type":"VEC3"},{"bufferView":30,"componentType":5126,"count":168,"max":[0.9810768365859985,0.3001302480697632],"min":[0.60595703125,0.03466796875],"type":"VEC2"},{"bufferView":31,"componentType":5123,"count":252,"max":[167],"min":[0],"type":"SCALAR"},{"bufferView":32,"componentType":5126,"count":186,"max":[1.6007508039474487,1.9505280256271362,0.42460477352142334],"min":[-1.5242491960525513,0.040455643087625504,0.11210476607084274],"type":"VEC3"},{"bufferView":33,"componentType":5126,"count":186,"max":[1,0.9804288744926453,1],"min":[-1,-1,-1],"type":"VEC3"},{"bufferView":34,"componentType":5126,"count":186,"max":[0.5546875,0.572265625],"min":[0,0.0234375],"type":"VEC2"},{"bufferView":35,"componentType":5123,"count":270,"max":[185],"min":[0],"type":"SCALAR"},{"bufferView":36,"componentType":5126,"count":60,"max":[0.5002633333206177,3.9955480098724365,0.6417607665061951],"min":[-0.29808059334754944,0.04242296144366264,-0.10823921114206314],"type":"VEC3"},{"bufferView":37,"componentType":5126,"count":60,"max":[0.882757306098938,0.9922778606414795,1],"min":[-0.882757306098938,-1,-1],"type":"VEC3"},{"bufferView":38,"componentType":5126,"count":60,"max":[0.5427476763725281,0.576171875],"min":[0.03529522940516472,0.099609375],"type":"VEC2"},{"bufferView":39,"componentType":5123,"count":72,"max":[59],"min":[0],"type":"SCALAR"},{"bufferView":40,"componentType":5126,"count":24,"max":[1.6635913848876953,0.32367295026779175,0.48551079630851746],"min":[-1.4614086151123047,0.011172962374985218,0.04801079258322716],"type":"VEC3"},{"bufferView":41,"componentType":5126,"count":24,"max":[1,1,1],"min":[-1,-1,-1],"type":"VEC3"},{"bufferView":42,"componentType":5126,"count":24,"max":[0.5703125,0.462890625],"min":[0.181640625,0.01171875],"type":"VEC2"},{"bufferView":43,"componentType":5123,"count":36,"max":[23],"min":[0],"type":"SCALAR"},{"bufferView":44,"componentType":5126,"count":60,"max":[0.5002633333206177,4.685726642608643,0.6417607665061951],"min":[-0.29808059334754944,0.04510153457522392,-0.10823921114206314],"type":"VEC3"},{"bufferView":45,"componentType":5126,"count":60,"max":[0.882757306098938,0.9922778606414795,1],"min":[-0.882757306098938,-1,-1],"type":"VEC3"},{"bufferView":46,"componentType":5126,"count":60,"max":[0.5212633013725281,0.59375],"min":[0.09375,0.0234375],"type":"VEC2"},{"bufferView":47,"componentType":5123,"count":72,"max":[59],"min":[0],"type":"SCALAR"},{"bufferView":48,"componentType":5126,"count":60,"max":[0.5002633333206177,6.03795862197876,0.6417607665061951],"min":[-0.29808059334754944,0.05045867711305618,-0.10823921114206314],"type":"VEC3"},{"bufferView":49,"componentType":5126,"count":60,"max":[0.882757306098938,0.8588836193084717,1],"min":[-0.882757306098938,-1,-1],"type":"VEC3"},{"bufferView":50,"componentType":5126,"count":60,"max":[0.3318101465702057,0.623046875],"min":[0,0.099609375],"type":"VEC2"},{"bufferView":51,"componentType":5123,"count":72,"max":[59],"min":[0],"type":"SCALAR"},{"bufferView":52,"componentType":5126,"count":60,"max":[0.5002633333206177,6.251128196716309,0.6417607665061951],"min":[-0.29808059334754944,0.04800331965088844,-0.10823921114206314],"type":"VEC3"},{"bufferView":53,"componentType":5126,"count":60,"max":[0.882757306098938,0.9752255082130432,1],"min":[-0.882757306098938,-1,-1],"type":"VEC3"},{"bufferView":54,"componentType":5126,"count":60,"max":[0.455078125,0.611328125],"min":[0.037230730056762695,0.064453125],"type":"VEC2"},{"bufferView":55,"componentType":5123,"count":72,"max":[59],"min":[0],"type":"SCALAR"},{"bufferView":56,"componentType":5126,"count":68,"max":[0.9605517387390137,0.30913078784942627,0.5238550901412964],"min":[-1.3082391023635864,-0.4511619806289673,0.008597658015787601],"type":"VEC3"},{"bufferView":57,"componentType":5126,"count":68,"max":[1,1,1],"min":[-0.9404230713844299,-1,-1],"type":"VEC3"},{"bufferView":58,"componentType":5126,"count":68,"max":[0.53125,0.54150390625],"min":[0,0],"type":"VEC2"},{"bufferView":59,"componentType":5123,"count":96,"max":[67],"min":[0],"type":"SCALAR"}],"materials":[{"pbrMetallicRoughness":{"metallicFactor":0,"roughnessFactor":1,"baseColorTexture":{"index":0}},"alphaMode":"MASK","alphaCutoff":0.05,"doubleSided":true}],"textures":[{"sampler":0,"source":0}],"samplers":[{"magFilter":9728,"minFilter":9728,"wrapS":33071,"wrapT":33071}],"images":[{"mimeType":"image/png","uri":"data:image/png;base64,"}],"meshes":[{"primitives":[{"mode":4,"attributes":{"POSITION":0,"NORMAL":1,"TEXCOORD_0":2},"indices":3,"material":0}]},{"primitives":[{"mode":4,"attributes":{"POSITION":4,"NORMAL":5,"TEXCOORD_0":6},"indices":7,"material":0}]},{"primitives":[{"mode":4,"attributes":{"POSITION":8,"NORMAL":9,"TEXCOORD_0":10},"indices":11,"material":0}]},{"primitives":[{"mode":4,"attributes":{"POSITION":12,"NORMAL":13,"TEXCOORD_0":14},"indices":15,"material":0}]},{"primitives":[{"mode":4,"attributes":{"POSITION":16,"NORMAL":17,"TEXCOORD_0":18},"indices":19,"material":0}]},{"primitives":[{"mode":4,"attributes":{"POSITION":20,"NORMAL":21,"TEXCOORD_0":22},"indices":23,"material":0}]},{"primitives":[{"mode":4,"attributes":{"POSITION":24,"NORMAL":25,"TEXCOORD_0":26},"indices":27,"material":0}]},{"primitives":[{"mode":4,"attributes":{"POSITION":28,"NORMAL":29,"TEXCOORD_0":30},"indices":31,"material":0}]},{"primitives":[{"mode":4,"attributes":{"POSITION":32,"NORMAL":33,"TEXCOORD_0":34},"indices":35,"material":0}]},{"primitives":[{"mode":4,"attributes":{"POSITION":36,"NORMAL":37,"TEXCOORD_0":38},"indices":39,"material":0}]},{"primitives":[{"mode":4,"attributes":{"POSITION":40,"NORMAL":41,"TEXCOORD_0":42},"indices":43,"material":0}]},{"primitives":[{"mode":4,"attributes":{"POSITION":44,"NORMAL":45,"TEXCOORD_0":46},"indices":47,"material":0}]},{"primitives":[{"mode":4,"attributes":{"POSITION":48,"NORMAL":49,"TEXCOORD_0":50},"indices":51,"material":0}]},{"primitives":[{"mode":4,"attributes":{"POSITION":52,"NORMAL":53,"TEXCOORD_0":54},"indices":55,"material":0}]},{"primitives":[{"mode":4,"attributes":{"POSITION":56,"NORMAL":57,"TEXCOORD_0":58},"indices":59,"material":0}]}]}