{"asset":{"version":"2.0","generator":"Blockbench 4.9.4 glTF exporter"},"scenes":[{"nodes":[19],"name":"blockbench_export"}],"scene":0,"nodes":[{"translation":[-0.0813,-0.11229999999999998,-0.27325],"name":"Mandible_L"},{"translation":[0.0813,-0.11229999999999998,-0.27325],"name":"Mandible_R"},{"translation":[-0.03858173076923089,0.017668269230769196,-0.24699519230769273],"name":"Eye_UL"},{"translation":[0.038581730769230875,0.017668269230769196,-0.24699519230769273],"name":"Eye_UR"},{"translation":[-0.0601593115787783,-0.04254897481807682,-0.29043374923971227],"name":"Eye_LL"},{"translation":[0.06015931157877829,-0.04254897481807682,-0.29043374923971227],"name":"Eye_LR"},{"translation":[7.46940033277068e-18,-0.05065304487179478,-0.1783052884615383],"name":"Skull","children":[0,1,2,3,4,5]},{"translation":[0,0.4375005697151617,0.08426114696253234],"name":"BootyShooter"},{"translation":[1.1969187619793353e-18,0.0016219551282052325,0.21513221153846168],"name":"Booty","children":[7]},{"translation":[-3.0691261498051205e-18,0.3037780448717948,-0.020132211538461668],"name":"Torso","children":[6,8]},{"translation":[-0.400134216286281,-0.3817526223776222,1.249000902703301e-16],"name":"Toesie_FL"},{"translation":[-0.07875,0.3875,-0.10549170165757167],"name":"Leggie_FL","children":[10]},{"translation":[0.40638421628628074,-0.38331512237762194,0],"name":"Toesie_FR"},{"translation":[0.07875,0.3875,-0.10549170165757167],"name":"Leggie_FR","children":[12]},{"translation":[-0.2849914942005018,-0.3833151223776219,0.28874057625664923],"name":"Toesie_RL"},{"translation":[-0.07875,0.3875,0.125],"name":"Leggie_RL","children":[14]},{"translation":[0.2849914942005018,-0.37706512237762185,0.28874057625664923],"name":"Toesie_RR"},{"translation":[0.07875,0.38125,0.125],"name":"Leggie_RR","children":[16]},{"name":"ActorMesh","children":[9,11,13,15,17]},{"name":"ActorMesh","mesh":0,"children":[18],"skin":0}],"bufferViews":[{"buffer":0,"byteOffset":0,"byteLength":12792,"target":34962,"byteStride":12},{"buffer":0,"byteOffset":12792,"byteLength":12792,"target":34962,"byteStride":12},{"buffer":0,"byteOffset":25584,"byteLength":8528,"target":34962,"byteStride":8},{"buffer":0,"byteOffset":34112,"byteLength":8528,"target":34962,"byteStride":8},{"buffer":0,"byteOffset":42640,"byteLength":17056,"target":34962,"byteStride":16},{"buffer":0,"byteOffset":59696,"byteLength":2928,"target":34963},{"buffer":0,"byteOffset":62624,"byteLength":1216}],"buffers":[{"byteLength":63840,"uri":"data:application/octet-stream;base64,"}],"accessors":[{"bufferView":0,"componentType":5126,"count":1066,"max":[0.5134412050247192,0.7582236528396606,0.6045194268226624],"min":[-0.5134412050247192,0.004687493667006493,-0.5764422416687012],"type":"VEC3"},{"bufferView":1,"componentType":5126,"count":1066,"max":[1,1,1],"min":[-1,-1,-1],"type":"VEC3"},{"bufferView":2,"componentType":5126,"count":1066,"max":[0.7716578245162964,0.77734375],"min":[0,0],"type":"VEC2"},{"bufferView":3,"componentType":5123,"count":1066,"max":[0,17,0,0],"min":[0,1,0,0],"type":"VEC4"},{"bufferView":4,"componentType":5126,"count":1066,"max":[0,1,0,0],"min":[0,1,0,0],"type":"VEC4"},{"bufferView":5,"componentType":5123,"count":1464,"max":[1065],"min":[0],"type":"SCALAR"},{"bufferView":6,"componentType":5126,"count":19,"max":[1,0,0,0,0,1,0,0,0,0,1,0,0.478884220123291,0,0.4888712465763092,1],"min":[1,0,0,0,0,1,0,0,0,0,1,0,-0.48513421416282654,-0.742900550365448,-0.4137405753135681,1],"type":"MAT4"}],"materials":[{"pbrMetallicRoughness":{"metallicFactor":0,"roughnessFactor":1,"baseColorTexture":{"index":0}},"alphaMode":"MASK","alphaCutoff":0.05,"doubleSided":true}],"textures":[{"sampler":0,"source":0}],"samplers":[{"magFilter":9728,"minFilter":9728,"wrapS":33071,"wrapT":33071}],"images":[{"mimeType":"image/png","uri":"data:image/png;base64,"}],"meshes":[{"primitives":[{"mode":4,"attributes":{"POSITION":0,"NORMAL":1,"TEXCOORD_0":2,"JOINTS_0":3,"WEIGHTS_0":4},"indices":5,"material":0}]}],"skins":[{"inverseBindMatrices":6,"joints":[18,9,6,0,1,2,3,4,5,8,7,11,10,13,12,15,14,17,16],"skeleton":18}]}