{"asset":{"version":"2.0","generator":"Blockbench 4.9.4 glTF exporter"},"scenes":[{"nodes":[0,1],"name":"blockbench_export"}],"scene":0,"nodes":[{"rotation":[0,0,0.7071067811865475,0.7071067811865476],"translation":[-1.3322676295501898e-18,-8.1601392309949e-18,-3.8857805861880475e-18],"name":"Ring","mesh":0},{"rotation":[0,0,0.7071067811865475,0.7071067811865476],"translation":[-1.3322676295501898e-18,-8.1601392309949e-18,-3.8857805861880475e-18],"name":"Core","mesh":1}],"bufferViews":[{"buffer":0,"byteOffset":0,"byteLength":5184,"target":34962,"byteStride":12},{"buffer":0,"byteOffset":5184,"byteLength":5184,"target":34962,"byteStride":12},{"buffer":0,"byteOffset":10368,"byteLength":3456,"target":34962,"byteStride":8},{"buffer":0,"byteOffset":13824,"byteLength":1296,"target":34963},{"buffer":0,"byteOffset":15120,"byteLength":720,"target":34962,"byteStride":12},{"buffer":0,"byteOffset":15840,"byteLength":720,"target":34962,"byteStride":12},{"buffer":0,"byteOffset":16560,"byteLength":480,"target":34962,"byteStride":8},{"buffer":0,"byteOffset":17040,"byteLength":144,"target":34963}],"buffers":[{"byteLength":17184,"uri":"data:application/octet-stream;base64,"}],"accessors":[{"bufferView":0,"componentType":5126,"count":432,"max":[0.11315083503723145,0.009237604215741158,0.10617820173501968],"min":[-0.11315083503723145,-0.009237604215741158,-0.10617820173501968],"type":"VEC3"},{"bufferView":1,"componentType":5126,"count":432,"max":[0.990428626537323,0.8456804752349854,1],"min":[-0.9904285669326782,-0.8456804752349854,-1],"type":"VEC3"},{"bufferView":2,"componentType":5126,"count":432,"max":[0.71875,0.71875],"min":[0,0],"type":"VEC2"},{"bufferView":3,"componentType":5123,"count":648,"max":[431],"min":[0],"type":"SCALAR"},{"bufferView":4,"componentType":5126,"count":60,"max":[0.03999999910593033,0.035999998450279236,0.03542562574148178],"min":[-0.03999999910593033,-0.035999998450279236,-0.03542562574148178],"type":"VEC3"},{"bufferView":5,"componentType":5126,"count":60,"max":[0.8708068132400513,0.8915175795555115,1],"min":[-0.8708068132400513,-0.8915175795555115,-1],"type":"VEC3"},{"bufferView":6,"componentType":5126,"count":60,"max":[0.7638798952102661,0.7421875],"min":[0,0],"type":"VEC2"},{"bufferView":7,"componentType":5123,"count":72,"max":[59],"min":[0],"type":"SCALAR"}],"materials":[{"pbrMetallicRoughness":{"metallicFactor":0,"roughnessFactor":1,"baseColorTexture":{"index":0}},"alphaMode":"MASK","alphaCutoff":0.05,"doubleSided":true}],"textures":[{"sampler":0,"source":0}],"samplers":[{"magFilter":9728,"minFilter":9728,"wrapS":33071,"wrapT":33071}],"images":[{"mimeType":"image/png","uri":"data:image/png;base64,"}],"meshes":[{"primitives":[{"mode":4,"attributes":{"POSITION":0,"NORMAL":1,"TEXCOORD_0":2},"indices":3,"material":0}]},{"primitives":[{"mode":4,"attributes":{"POSITION":4,"NORMAL":5,"TEXCOORD_0":6},"indices":7,"material":0}]}]}