{"asset":{"version":"2.0","generator":"Blockbench 4.9.4 glTF exporter"},"scenes":[{"nodes":[3],"name":"blockbench_export"}],"scene":0,"nodes":[{"name":"Core"},{"name":"Torus"},{"name":"Mesh_Soul","children":[0,1]},{"name":"Mesh_Soul","mesh":0,"children":[2],"skin":0}],"bufferViews":[{"buffer":0,"byteOffset":0,"byteLength":2448,"target":34962,"byteStride":12},{"buffer":0,"byteOffset":2448,"byteLength":2448,"target":34962,"byteStride":12},{"buffer":0,"byteOffset":4896,"byteLength":1632,"target":34962,"byteStride":8},{"buffer":0,"byteOffset":6528,"byteLength":1632,"target":34962,"byteStride":8},{"buffer":0,"byteOffset":8160,"byteLength":3264,"target":34962,"byteStride":16},{"buffer":0,"byteOffset":11424,"byteLength":576,"target":34963},{"buffer":0,"byteOffset":12000,"byteLength":192}],"buffers":[{"byteLength":12192,"uri":"data:application/octet-stream;base64,"}],"accessors":[{"bufferView":0,"componentType":5126,"count":204,"max":[0.09000000357627869,0.2047520875930786,0.1873205155134201],"min":[-0.09000000357627869,-0.2047520875930786,-0.1873205155134201],"type":"VEC3"},{"bufferView":1,"componentType":5126,"count":204,"max":[0.8915175795555115,0.8774990439414978,1],"min":[-0.8915175795555115,-0.8774990439414978,-1],"type":"VEC3"},{"bufferView":2,"componentType":5126,"count":204,"max":[0.625,0.5625],"min":[0,0],"type":"VEC2"},{"bufferView":3,"componentType":5123,"count":204,"max":[0,2,0,0],"min":[0,1,0,0],"type":"VEC4"},{"bufferView":4,"componentType":5126,"count":204,"max":[0,1,0,0],"min":[0,1,0,0],"type":"VEC4"},{"bufferView":5,"componentType":5123,"count":288,"max":[203],"min":[0],"type":"SCALAR"},{"bufferView":6,"componentType":5126,"count":3,"max":[1,0,0,0,0,1,0,0,0,0,1,0,0,0,0,1],"min":[1,0,0,0,0,1,0,0,0,0,1,0,0,0,0,1],"type":"MAT4"}],"materials":[{"pbrMetallicRoughness":{"metallicFactor":0,"roughnessFactor":1,"baseColorTexture":{"index":0}},"alphaMode":"MASK","alphaCutoff":0.05,"doubleSided":true}],"textures":[{"sampler":0,"source":0}],"samplers":[{"magFilter":9728,"minFilter":9728,"wrapS":33071,"wrapT":33071}],"images":[{"mimeType":"image/png","uri":"data:image/png;base64,"}],"meshes":[{"primitives":[{"mode":4,"attributes":{"POSITION":0,"NORMAL":1,"TEXCOORD_0":2,"JOINTS_0":3,"WEIGHTS_0":4},"indices":5,"material":0}]}],"skins":[{"inverseBindMatrices":6,"joints":[2,0,1],"skeleton":2}]}