{"asset":{"version":"2.0","generator":"Blockbench 4.9.4 glTF exporter"},"scenes":[{"nodes":[3],"name":"blockbench_export"}],"scene":0,"nodes":[{"rotation":[0,0,0.7071067811865475,0.7071067811865476],"translation":[-3.330669073875474e-18,-2.0400348077487248e-17,-9.714451465470119e-18],"name":"Core","mesh":0},{"name":"Core","children":[0]},{"name":"Mesh_Soul","children":[1]},{"children":[2]}],"bufferViews":[{"buffer":0,"byteOffset":0,"byteLength":720,"target":34962,"byteStride":12},{"buffer":0,"byteOffset":720,"byteLength":720,"target":34962,"byteStride":12},{"buffer":0,"byteOffset":1440,"byteLength":480,"target":34962,"byteStride":8},{"buffer":0,"byteOffset":1920,"byteLength":144,"target":34963}],"buffers":[{"byteLength":2064,"uri":"data:application/octet-stream;base64,"}],"accessors":[{"bufferView":0,"componentType":5126,"count":60,"max":[0.10000000149011612,0.09000000357627869,0.08856406807899475],"min":[-0.10000000149011612,-0.09000000357627869,-0.08856406807899475],"type":"VEC3"},{"bufferView":1,"componentType":5126,"count":60,"max":[0.8708068132400513,0.8915175795555115,1],"min":[-0.8708068132400513,-0.8915175795555115,-1],"type":"VEC3"},{"bufferView":2,"componentType":5126,"count":60,"max":[0.025431249290704727,0.024837493896484375],"min":[0,0],"type":"VEC2"},{"bufferView":3,"componentType":5123,"count":72,"max":[59],"min":[0],"type":"SCALAR"}],"materials":[{"pbrMetallicRoughness":{"metallicFactor":0,"roughnessFactor":1,"baseColorTexture":{"index":0}},"alphaMode":"MASK","alphaCutoff":0.05,"doubleSided":true}],"textures":[{"sampler":0,"source":0}],"samplers":[{"magFilter":9728,"minFilter":9728,"wrapS":33071,"wrapT":33071}],"images":[{"mimeType":"image/png","uri":"data:image/png;base64,"}],"meshes":[{"primitives":[{"mode":4,"attributes":{"POSITION":0,"NORMAL":1,"TEXCOORD_0":2},"indices":3,"material":0}]}]}