{"asset":{"version":"2.0","generator":"Blockbench 4.9.4 glTF exporter"},"scenes":[{"nodes":[5,8],"name":"blockbench_export"}],"scene":0,"nodes":[{"translation":[-5.887724973822892e-17,2.7755575615628914e-17,0],"name":"Teefs_Upper"},{"translation":[-3.613916146396342e-18,0.20312500000000006,0.0625],"name":"EyeOrb"},{"translation":[0.03906249999999997,0.2062500000000001,0.0957589285714282],"name":"Eyelid_R"},{"translation":[-0.03906249999999997,0.2062500000000001,0.0957589285714282],"name":"Eyelid_L"},{"name":"Lid","children":[0,1,2,3]},{"rotation":[0.7071067811865475,0,0,0.7071067811865476],"translation":[0,0.1765625,0.2234375],"name":"Lid","mesh":0,"children":[4],"skin":0},{"translation":[0.14062500000000003,0.0764579390872753,0.23454861111111114],"name":"Teefs_Lower"},{"name":"Base","children":[6]},{"translation":[-0.140625,0.019375000000000003,-0.359375],"name":"Base","mesh":1,"children":[7],"skin":1}],"bufferViews":[{"buffer":0,"byteOffset":0,"byteLength":12852,"target":34962,"byteStride":12},{"buffer":0,"byteOffset":12852,"byteLength":12852,"target":34962,"byteStride":12},{"buffer":0,"byteOffset":25704,"byteLength":8568,"target":34962,"byteStride":8},{"buffer":0,"byteOffset":34272,"byteLength":8568,"target":34962,"byteStride":8},{"buffer":0,"byteOffset":42840,"byteLength":17136,"target":34962,"byteStride":16},{"buffer":0,"byteOffset":59976,"byteLength":2900,"target":34963},{"buffer":0,"byteOffset":62876,"byteLength":15336,"target":34962,"byteStride":12},{"buffer":0,"byteOffset":78212,"byteLength":15336,"target":34962,"byteStride":12},{"buffer":0,"byteOffset":93548,"byteLength":10224,"target":34962,"byteStride":8},{"buffer":0,"byteOffset":103772,"byteLength":10224,"target":34962,"byteStride":8},{"buffer":0,"byteOffset":113996,"byteLength":20448,"target":34962,"byteStride":16},{"buffer":0,"byteOffset":134444,"byteLength":3612,"target":34963},{"buffer":0,"byteOffset":138056,"byteLength":320},{"buffer":0,"byteOffset":138376,"byteLength":128}],"buffers":[{"byteLength":138504,"uri":"data:application/octet-stream;base64,"}],"accessors":[{"bufferView":0,"componentType":5126,"count":1071,"max":[0.20156249403953552,0.2027733325958252,0.03922799602150917],"min":[-0.20156249403953552,-0.08553571254014969,-0.46406251192092896],"type":"VEC3"},{"bufferView":1,"componentType":5126,"count":1071,"max":[1,1,1],"min":[-1,-1,-0.9918198585510254],"type":"VEC3"},{"bufferView":2,"componentType":5126,"count":1071,"max":[0.9831653833389282,0.9664999842643738],"min":[0,0],"type":"VEC2"},{"bufferView":3,"componentType":5123,"count":1071,"max":[0,4,0,0],"min":[0,0,0,0],"type":"VEC4"},{"bufferView":4,"componentType":5126,"count":1071,"max":[0,1,0,0],"min":[0,1,0,0],"type":"VEC4"},{"bufferView":5,"componentType":5123,"count":1449,"max":[1070],"min":[0],"type":"SCALAR"},{"bufferView":6,"componentType":5126,"count":1278,"max":[0.3421874940395355,0.255500465631485,0.5971954464912415],"min":[-0.06093749403953552,-0.10440108180046082,0.13717956840991974],"type":"VEC3"},{"bufferView":7,"componentType":5126,"count":1278,"max":[1,1,1],"min":[-1,-1,-1],"type":"VEC3"},{"bufferView":8,"componentType":5126,"count":1278,"max":[0.9641984105110168,0.9800109267234802],"min":[0,0],"type":"VEC2"},{"bufferView":9,"componentType":5123,"count":1278,"max":[0,1,0,0],"min":[0,0,0,0],"type":"VEC4"},{"bufferView":10,"componentType":5126,"count":1278,"max":[0,1,0,0],"min":[0,1,0,0],"type":"VEC4"},{"bufferView":11,"componentType":5123,"count":1806,"max":[1277],"min":[0],"type":"SCALAR"},{"bufferView":12,"componentType":5126,"count":5,"max":[1,0,0,0,0,1,0,0,0,0,1,0,0.0390625,0,0,1],"min":[1,0,0,0,0,1,0,0,0,0,1,0,-0.0390625,-0.20624999701976776,-0.09575892984867096,1],"type":"MAT4"},{"bufferView":13,"componentType":5126,"count":2,"max":[1,0,0,0,0,1,0,0,0,0,1,0,0,0,0,1],"min":[1,0,0,0,0,1,0,0,0,0,1,0,-0.140625,-0.07645794004201889,-0.23454861342906952,1],"type":"MAT4"}],"materials":[{"pbrMetallicRoughness":{"metallicFactor":0,"roughnessFactor":1,"baseColorTexture":{"index":0}},"alphaMode":"MASK","alphaCutoff":0.05,"doubleSided":true}],"textures":[{"sampler":0,"source":0}],"samplers":[{"magFilter":9728,"minFilter":9728,"wrapS":33071,"wrapT":33071}],"images":[{"mimeType":"image/png","uri":"data:image/png;base64,"}],"meshes":[{"primitives":[{"mode":4,"attributes":{"POSITION":0,"NORMAL":1,"TEXCOORD_0":2,"JOINTS_0":3,"WEIGHTS_0":4},"indices":5,"material":0}]},{"primitives":[{"mode":4,"attributes":{"POSITION":6,"NORMAL":7,"TEXCOORD_0":8,"JOINTS_0":9,"WEIGHTS_0":10},"indices":11,"material":0}]}],"skins":[{"inverseBindMatrices":12,"joints":[4,0,1,2,3],"skeleton":4},{"inverseBindMatrices":13,"joints":[7,6],"skeleton":7}]}