{"asset":{"version":"2.0","generator":"Blockbench 4.9.4 glTF exporter"},"scenes":[{"nodes":[9],"name":"blockbench_export"}],"scene":0,"nodes":[{"translation":[5.4722552631377044e-17,0.03581884662701057,-0.32795138888888886],"name":"Teefers_T"},{"translation":[-2.4781763942525805e-19,-0.0625,2.42861286636753e-17],"name":"Eye_Orb"},{"translation":[-0.056249999999999994,-0.10312499999999997,1.0755285551056204e-16],"name":"Eyelid_L"},{"translation":[0.05625000000000001,-0.10312500000000008,2.185751579730777e-16],"name":"Eyelid_R"},{"translation":[5.526333359183257e-17,0.125,-0.203125],"name":"Eye","children":[1,2,3]},{"translation":[-5.887724973822892e-17,0.13906250000000003,0.22343749999999998],"name":"Lid","children":[0,4]},{"translation":[2.5699607051508244e-18,0.1208329390872753,-0.1248263888888889],"name":"Teefers_B"},{"name":"Base","children":[5,6]},{"name":"Mesh_Mimi","children":[7]},{"translation":[0,0.125,0],"name":"Mesh_Mimi","mesh":0,"children":[8],"skin":0}],"bufferViews":[{"buffer":0,"byteOffset":0,"byteLength":28188,"target":34962,"byteStride":12},{"buffer":0,"byteOffset":28188,"byteLength":28188,"target":34962,"byteStride":12},{"buffer":0,"byteOffset":56376,"byteLength":18792,"target":34962,"byteStride":8},{"buffer":0,"byteOffset":75168,"byteLength":18792,"target":34962,"byteStride":8},{"buffer":0,"byteOffset":93960,"byteLength":37584,"target":34962,"byteStride":16},{"buffer":0,"byteOffset":131544,"byteLength":6512,"target":34963},{"buffer":0,"byteOffset":138056,"byteLength":576}],"buffers":[{"byteLength":138632,"uri":"data:application/octet-stream;base64,"}],"accessors":[{"bufferView":0,"componentType":5126,"count":2349,"max":[0.20156249403953552,0.3418358266353607,0.2626655101776123],"min":[-0.20156249403953552,-0.12252608686685562,-0.24062500894069672],"type":"VEC3"},{"bufferView":1,"componentType":5126,"count":2349,"max":[1,1,1],"min":[-1,-1,-1],"type":"VEC3"},{"bufferView":2,"componentType":5126,"count":2349,"max":[0.9831653833389282,0.9800109267234802],"min":[0,0],"type":"VEC2"},{"bufferView":3,"componentType":5123,"count":2349,"max":[0,8,0,0],"min":[0,1,0,0],"type":"VEC4"},{"bufferView":4,"componentType":5126,"count":2349,"max":[0,1,0,0],"min":[0,1,0,0],"type":"VEC4"},{"bufferView":5,"componentType":5123,"count":3255,"max":[2348],"min":[0],"type":"SCALAR"},{"bufferView":6,"componentType":5126,"count":9,"max":[1,0,0,0,0,1,0,0,0,0,1,0,0.05624999850988388,0,0.12482638657093048,1],"min":[1,0,0,0,0,1,0,0,0,0,1,0,-0.05624999850988388,-0.2640624940395355,-0.22343750298023224,1],"type":"MAT4"}],"materials":[{"pbrMetallicRoughness":{"metallicFactor":0,"roughnessFactor":1,"baseColorTexture":{"index":0}},"alphaMode":"MASK","alphaCutoff":0.05,"doubleSided":true}],"textures":[{"sampler":0,"source":0}],"samplers":[{"magFilter":9728,"minFilter":9728,"wrapS":33071,"wrapT":33071}],"images":[{"mimeType":"image/png","uri":"data:image/png;base64,"}],"meshes":[{"primitives":[{"mode":4,"attributes":{"POSITION":0,"NORMAL":1,"TEXCOORD_0":2,"JOINTS_0":3,"WEIGHTS_0":4},"indices":5,"material":0}]}],"skins":[{"inverseBindMatrices":6,"joints":[8,7,5,0,4,1,2,3,6],"skeleton":8}]}