{"asset":{"version":"2.0","generator":"Blockbench 4.9.4 glTF exporter"},"scenes":[{"nodes":[1],"name":"blockbench_export"}],"scene":0,"nodes":[{"translation":[-0.0002272727272727261,-0.000056988351766078015,0.000008248651855560027],"name":"Scrap","mesh":0},{"children":[0]}],"bufferViews":[{"buffer":0,"byteOffset":0,"byteLength":2760,"target":34962,"byteStride":12},{"buffer":0,"byteOffset":2760,"byteLength":2760,"target":34962,"byteStride":12},{"buffer":0,"byteOffset":5520,"byteLength":1840,"target":34962,"byteStride":8},{"buffer":0,"byteOffset":7360,"byteLength":636,"target":34963}],"buffers":[{"byteLength":7996,"uri":"data:application/octet-stream;base64,"}],"accessors":[{"bufferView":0,"componentType":5126,"count":230,"max":[0.0558001883327961,0.01880607381463051,0.18343040347099304],"min":[-0.055918559432029724,-0.01869271695613861,-0.2353195995092392],"type":"VEC3"},{"bufferView":1,"componentType":5126,"count":230,"max":[0.9324958324432373,0.945246160030365,0.9507862329483032],"min":[-0.7842118144035339,-0.9496644735336304,-0.6229743957519531],"type":"VEC3"},{"bufferView":2,"componentType":5126,"count":230,"max":[0.5625,0.53125],"min":[0,0],"type":"VEC2"},{"bufferView":3,"componentType":5123,"count":318,"max":[229],"min":[0],"type":"SCALAR"}],"materials":[{"pbrMetallicRoughness":{"metallicFactor":0,"roughnessFactor":1,"baseColorTexture":{"index":0}},"alphaMode":"MASK","alphaCutoff":0.05,"doubleSided":true}],"textures":[{"sampler":0,"source":0}],"samplers":[{"magFilter":9728,"minFilter":9728,"wrapS":33071,"wrapT":33071}],"images":[{"mimeType":"image/png","uri":"data:image/png;base64,"}],"meshes":[{"primitives":[{"mode":4,"attributes":{"POSITION":0,"NORMAL":1,"TEXCOORD_0":2},"indices":3,"material":0}]}]}