{"asset":{"version":"2.0","generator":"Blockbench 4.9.4 glTF exporter"},"scenes":[{"nodes":[1],"name":"blockbench_export"}],"scene":0,"nodes":[{"name":"Scrap"},{"translation":[-1.5296259504995987e-18,5.796515029483477e-17,0.266093176810436],"name":"Scrap","mesh":0,"children":[0],"skin":0}],"bufferViews":[{"buffer":0,"byteOffset":0,"byteLength":2760,"target":34962,"byteStride":12},{"buffer":0,"byteOffset":2760,"byteLength":2760,"target":34962,"byteStride":12},{"buffer":0,"byteOffset":5520,"byteLength":1840,"target":34962,"byteStride":8},{"buffer":0,"byteOffset":7360,"byteLength":1840,"target":34962,"byteStride":8},{"buffer":0,"byteOffset":9200,"byteLength":3680,"target":34962,"byteStride":16},{"buffer":0,"byteOffset":12880,"byteLength":636,"target":34963},{"buffer":0,"byteOffset":13516,"byteLength":64}],"buffers":[{"byteLength":13580,"uri":"data:application/octet-stream;base64,"}],"accessors":[{"bufferView":0,"componentType":5126,"count":230,"max":[0.027786457911133766,0.009374543093144894,-0.23640567064285278],"min":[-0.028072915971279144,-0.009374852292239666,-0.4457806646823883],"type":"VEC3"},{"bufferView":1,"componentType":5126,"count":230,"max":[0.9324958324432373,0.945246160030365,0.9507862329483032],"min":[-0.7842118144035339,-0.9496644735336304,-0.6229743957519531],"type":"VEC3"},{"bufferView":2,"componentType":5126,"count":230,"max":[0.5625,0.53125],"min":[0,0],"type":"VEC2"},{"bufferView":3,"componentType":5123,"count":230,"max":[0,0,0,0],"min":[0,0,0,0],"type":"VEC4"},{"bufferView":4,"componentType":5126,"count":230,"max":[0,1,0,0],"min":[0,1,0,0],"type":"VEC4"},{"bufferView":5,"componentType":5123,"count":318,"max":[229],"min":[0],"type":"SCALAR"},{"bufferView":6,"componentType":5126,"count":1,"max":[1,0,0,0,0,1,0,0,0,0,1,0,0,0,0,1],"min":[1,0,0,0,0,1,0,0,0,0,1,0,0,0,0,1],"type":"MAT4"}],"materials":[{"pbrMetallicRoughness":{"metallicFactor":0,"roughnessFactor":1,"baseColorTexture":{"index":0}},"alphaMode":"MASK","alphaCutoff":0.05,"doubleSided":true}],"textures":[{"sampler":0,"source":0}],"samplers":[{"magFilter":9728,"minFilter":9728,"wrapS":33071,"wrapT":33071}],"images":[{"mimeType":"image/png","uri":"data:image/png;base64,"}],"meshes":[{"primitives":[{"mode":4,"attributes":{"POSITION":0,"NORMAL":1,"TEXCOORD_0":2,"JOINTS_0":3,"WEIGHTS_0":4},"indices":5,"material":0}]}],"skins":[{"inverseBindMatrices":6,"joints":[0],"skeleton":0}]}