{"asset":{"version":"2.0","generator":"Blockbench 4.9.4 glTF exporter"},"scenes":[{"nodes":[8],"name":"blockbench_export"}],"scene":0,"nodes":[{"rotation":[0.23319631655830142,-0.6988114544465324,0.6237126881337558,0.2612747820569882],"translation":[-0.6992076256926283,0.16918103448275756,-4.831684802167146],"name":"Scatter1","mesh":0},{"rotation":[-0.19509032201612825,0,0,0.9807852804032304],"translation":[0,1.5625,0],"name":"Scatter2","mesh":1},{"rotation":[0.6177001545353273,-0.34416060071866533,0.19342167342650432,0.6801382625973124],"translation":[2.656316506188256,-0.10387446282913348,0.02802427879282332],"name":"Scatter3","mesh":2},{"rotation":[-0.017851280602141407,-0.9766708437661901,-0.1942716980567887,0.08974353487596724],"translation":[-4.193874408364535,1.055600052521008,0.44987927180634635],"name":"Scatter4","mesh":3},{"rotation":[0,0,-0.010908091494182374,0.9999405050001497],"translation":[3.6875,1.4640624999999996,0],"name":"Scatter5","mesh":4},{"rotation":[0,0.13052619222005157,0,0.9914448613738104],"translation":[-4.440892098500626e-16,1.6653345369377348e-16,0.4218749999999994],"name":"Scatter 8","mesh":5},{"rotation":[-7.499399432609232e-17,-0.9659258262890683,-7.499399432609232e-17,-0.25881904510252074],"translation":[0.7236841745050817,1.8449294379800394e-16,-3.602557457651125],"name":"Scatter 7","mesh":6},{"rotation":[0,0.659345815100069,0,0.7518398074789774],"translation":[1.2074177188643747,1.7118914537562298e-16,-0.8154085338067962],"name":"Scatter 6","mesh":7},{"children":[0,1,2,3,4,5,6,7]}],"bufferViews":[{"buffer":0,"byteOffset":0,"byteLength":10824,"target":34962,"byteStride":12},{"buffer":0,"byteOffset":10824,"byteLength":10824,"target":34962,"byteStride":12},{"buffer":0,"byteOffset":21648,"byteLength":7216,"target":34962,"byteStride":8},{"buffer":0,"byteOffset":28864,"byteLength":2508,"target":34963},{"buffer":0,"byteOffset":31372,"byteLength":8928,"target":34962,"byteStride":12},{"buffer":0,"byteOffset":40300,"byteLength":8928,"target":34962,"byteStride":12},{"buffer":0,"byteOffset":49228,"byteLength":5952,"target":34962,"byteStride":8},{"buffer":0,"byteOffset":55180,"byteLength":2040,"target":34963},{"buffer":0,"byteOffset":57220,"byteLength":10104,"target":34962,"byteStride":12},{"buffer":0,"byteOffset":67324,"byteLength":10104,"target":34962,"byteStride":12},{"buffer":0,"byteOffset":77428,"byteLength":6736,"target":34962,"byteStride":8},{"buffer":0,"byteOffset":84164,"byteLength":2292,"target":34963},{"buffer":0,"byteOffset":86456,"byteLength":14232,"target":34962,"byteStride":12},{"buffer":0,"byteOffset":100688,"byteLength":14232,"target":34962,"byteStride":12},{"buffer":0,"byteOffset":114920,"byteLength":9488,"target":34962,"byteStride":8},{"buffer":0,"byteOffset":124408,"byteLength":3180,"target":34963},{"buffer":0,"byteOffset":127588,"byteLength":21912,"target":34962,"byteStride":12},{"buffer":0,"byteOffset":149500,"byteLength":21912,"target":34962,"byteStride":12},{"buffer":0,"byteOffset":171412,"byteLength":14608,"target":34962,"byteStride":8},{"buffer":0,"byteOffset":186020,"byteLength":5016,"target":34963},{"buffer":0,"byteOffset":191036,"byteLength":10344,"target":34962,"byteStride":12},{"buffer":0,"byteOffset":201380,"byteLength":10344,"target":34962,"byteStride":12},{"buffer":0,"byteOffset":211724,"byteLength":6896,"target":34962,"byteStride":8},{"buffer":0,"byteOffset":218620,"byteLength":2364,"target":34963},{"buffer":0,"byteOffset":220984,"byteLength":12048,"target":34962,"byteStride":12},{"buffer":0,"byteOffset":233032,"byteLength":12048,"target":34962,"byteStride":12},{"buffer":0,"byteOffset":245080,"byteLength":8032,"target":34962,"byteStride":8},{"buffer":0,"byteOffset":253112,"byteLength":2724,"target":34963},{"buffer":0,"byteOffset":255836,"byteLength":13896,"target":34962,"byteStride":12},{"buffer":0,"byteOffset":269732,"byteLength":13896,"target":34962,"byteStride":12},{"buffer":0,"byteOffset":283628,"byteLength":9264,"target":34962,"byteStride":8},{"buffer":0,"byteOffset":292892,"byteLength":3132,"target":34963}],"buffers":[{"byteLength":296024,"uri":"data:application/octet-stream;base64,"}],"accessors":[{"bufferView":0,"componentType":5126,"count":902,"max":[5.680443286895752,0.2364053577184677,0.6610773801803589],"min":[-2.7883076667785645,-7.653514862060547,-2.5256950855255127],"type":"VEC3"},{"bufferView":1,"componentType":5126,"count":902,"max":[1,0.9947311282157898,1],"min":[-0.9972084164619446,-1,-1],"type":"VEC3"},{"bufferView":2,"componentType":5126,"count":902,"max":[0.5617308616638184,0.5179888606071472],"min":[0,0],"type":"VEC2"},{"bufferView":3,"componentType":5123,"count":1254,"max":[901],"min":[0],"type":"SCALAR"},{"bufferView":4,"componentType":5126,"count":744,"max":[2.0410892963409424,2.3647396564483643,1.1018990278244019],"min":[-2.3417112827301025,-2.309565782546997,-2.019789218902588],"type":"VEC3"},{"bufferView":5,"componentType":5126,"count":744,"max":[1,0.9997254610061646,1],"min":[-1,-1,-1],"type":"VEC3"},{"bufferView":6,"componentType":5126,"count":744,"max":[0.50830078125,0.525390625],"min":[0,0],"type":"VEC2"},{"bufferView":7,"componentType":5123,"count":1020,"max":[743],"min":[0],"type":"SCALAR"},{"bufferView":8,"componentType":5126,"count":842,"max":[1.5282257795333862,4.794528484344482,1.324510097503662],"min":[-3.091508388519287,-2.0388669967651367,-1.0753247737884521],"type":"VEC3"},{"bufferView":9,"componentType":5126,"count":842,"max":[1,0.994287371635437,1],"min":[-1,-0.9868323802947998,-1],"type":"VEC3"},{"bufferView":10,"componentType":5126,"count":842,"max":[0.5234375,0.5390625],"min":[0,0],"type":"VEC2"},{"bufferView":11,"componentType":5123,"count":1146,"max":[841],"min":[0],"type":"SCALAR"},{"bufferView":12,"componentType":5126,"count":1186,"max":[2.185816526412964,3.8303732872009277,1.719545841217041],"min":[-9.190801620483398,-2.621800422668457,-2.2301058769226074],"type":"VEC3"},{"bufferView":13,"componentType":5126,"count":1186,"max":[1,0.9859247207641602,1],"min":[-1,-1,-1],"type":"VEC3"},{"bufferView":14,"componentType":5126,"count":1186,"max":[0.5147982239723206,0.552734375],"min":[0,0],"type":"VEC2"},{"bufferView":15,"componentType":5123,"count":1590,"max":[1185],"min":[0],"type":"SCALAR"},{"bufferView":16,"componentType":5126,"count":1826,"max":[5.20611047744751,3.6364355087280273,1.666287899017334],"min":[-9.443965911865234,-3.756739854812622,-1.5018645524978638],"type":"VEC3"},{"bufferView":17,"componentType":5126,"count":1826,"max":[1,1,1],"min":[-1,-1,-1],"type":"VEC3"},{"bufferView":18,"componentType":5126,"count":1826,"max":[0.5234375,0.552734375],"min":[0,0],"type":"VEC2"},{"bufferView":19,"componentType":5123,"count":2508,"max":[1825],"min":[0],"type":"SCALAR"},{"bufferView":20,"componentType":5126,"count":862,"max":[3.6015164852142334,0.6866210699081421,4.2142462730407715],"min":[-0.8069556951522827,-0.5619867444038391,-4.541769027709961],"type":"VEC3"},{"bufferView":21,"componentType":5126,"count":862,"max":[1,1,0.9998960494995117],"min":[-1,-1,-1],"type":"VEC3"},{"bufferView":22,"componentType":5126,"count":862,"max":[0.5147982239723206,0.5179888606071472],"min":[0.00001296503069170285,0],"type":"VEC2"},{"bufferView":23,"componentType":5123,"count":1182,"max":[861],"min":[0],"type":"SCALAR"},{"bufferView":24,"componentType":5126,"count":1004,"max":[1.860891580581665,0.6866210699081421,1.5079963207244873],"min":[-4.661430358886719,-0.5619867444038391,-7.281577110290527],"type":"VEC3"},{"bufferView":25,"componentType":5126,"count":1004,"max":[1,1,0.9933915734291077],"min":[-1,-1,-1],"type":"VEC3"},{"bufferView":26,"componentType":5126,"count":1004,"max":[0.5147982239723206,0.5179888606071472],"min":[0.00001296503069170285,0],"type":"VEC2"},{"bufferView":27,"componentType":5123,"count":1362,"max":[1003],"min":[0],"type":"SCALAR"},{"bufferView":28,"componentType":5126,"count":1158,"max":[2.0352816581726074,0.6866210699081421,1.9100738763809204],"min":[-5.5591020584106445,-0.5619867444038391,-4.097912311553955],"type":"VEC3"},{"bufferView":29,"componentType":5126,"count":1158,"max":[1,1,0.9965624809265137],"min":[-1,-1,-1],"type":"VEC3"},{"bufferView":30,"componentType":5126,"count":1158,"max":[0.5147982239723206,0.5179888606071472],"min":[0,0],"type":"VEC2"},{"bufferView":31,"componentType":5123,"count":1566,"max":[1157],"min":[0],"type":"SCALAR"}],"materials":[{"pbrMetallicRoughness":{"metallicFactor":0,"roughnessFactor":1,"baseColorTexture":{"index":0}},"alphaMode":"MASK","alphaCutoff":0.05,"doubleSided":true}],"textures":[{"sampler":0,"source":0}],"samplers":[{"magFilter":9728,"minFilter":9728,"wrapS":33071,"wrapT":33071}],"images":[{"mimeType":"image/png","uri":"data:image/png;base64,"}],"meshes":[{"primitives":[{"mode":4,"attributes":{"POSITION":0,"NORMAL":1,"TEXCOORD_0":2},"indices":3,"material":0}]},{"primitives":[{"mode":4,"attributes":{"POSITION":4,"NORMAL":5,"TEXCOORD_0":6},"indices":7,"material":0}]},{"primitives":[{"mode":4,"attributes":{"POSITION":8,"NORMAL":9,"TEXCOORD_0":10},"indices":11,"material":0}]},{"primitives":[{"mode":4,"attributes":{"POSITION":12,"NORMAL":13,"TEXCOORD_0":14},"indices":15,"material":0}]},{"primitives":[{"mode":4,"attributes":{"POSITION":16,"NORMAL":17,"TEXCOORD_0":18},"indices":19,"material":0}]},{"primitives":[{"mode":4,"attributes":{"POSITION":20,"NORMAL":21,"TEXCOORD_0":22},"indices":23,"material":0}]},{"primitives":[{"mode":4,"attributes":{"POSITION":24,"NORMAL":25,"TEXCOORD_0":26},"indices":27,"material":0}]},{"primitives":[{"mode":4,"attributes":{"POSITION":28,"NORMAL":29,"TEXCOORD_0":30},"indices":31,"material":0}]}]}