{"asset":{"version":"2.0","generator":"Blockbench 4.9.4 glTF exporter"},"scenes":[{"nodes":[4],"name":"blockbench_export"}],"scene":0,"nodes":[{"translation":[4.513101726118522e-19,0,-0.0945121951219512],"name":"cuboid","mesh":0},{"translation":[0,0,1.1532327586206894],"name":"cuboid","mesh":1},{"rotation":[0.7071067811865475,0,0,0.7071067811865476],"name":"cylinder","mesh":2},{"name":"bone","children":[0,1,2]},{"children":[3]}],"bufferViews":[{"buffer":0,"byteOffset":0,"byteLength":1824,"target":34962,"byteStride":12},{"buffer":0,"byteOffset":1824,"byteLength":1824,"target":34962,"byteStride":12},{"buffer":0,"byteOffset":3648,"byteLength":1216,"target":34962,"byteStride":8},{"buffer":0,"byteOffset":4864,"byteLength":432,"target":34963},{"buffer":0,"byteOffset":5296,"byteLength":2784,"target":34962,"byteStride":12},{"buffer":0,"byteOffset":8080,"byteLength":2784,"target":34962,"byteStride":12},{"buffer":0,"byteOffset":10864,"byteLength":1856,"target":34962,"byteStride":8},{"buffer":0,"byteOffset":12720,"byteLength":672,"target":34963},{"buffer":0,"byteOffset":13392,"byteLength":2736,"target":34962,"byteStride":12},{"buffer":0,"byteOffset":16128,"byteLength":2736,"target":34962,"byteStride":12},{"buffer":0,"byteOffset":18864,"byteLength":1824,"target":34962,"byteStride":8},{"buffer":0,"byteOffset":20688,"byteLength":648,"target":34963}],"buffers":[{"byteLength":21336,"uri":"data:application/octet-stream;base64,"}],"accessors":[{"bufferView":0,"componentType":5126,"count":152,"max":[0.09166666865348816,0.041665446013212204,1.1445121765136719],"min":[-0.09166666865348816,-0.04166627302765846,-1.1263211965560913],"type":"VEC3"},{"bufferView":1,"componentType":5126,"count":152,"max":[0.764445424079895,0.7399659752845764,0.033766962587833405],"min":[-0.764445424079895,-0.7399400472640991,-0.2068396508693695],"type":"VEC3"},{"bufferView":2,"componentType":5126,"count":152,"max":[0.7859460115432739,0.7615593671798706],"min":[0,0],"type":"VEC2"},{"bufferView":3,"componentType":5123,"count":216,"max":[151],"min":[0],"type":"SCALAR"},{"bufferView":4,"componentType":5126,"count":232,"max":[0.375,0.05000000074505806,0.05510057508945465],"min":[-0.375,-0.05000000074505806,-0.25],"type":"VEC3"},{"bufferView":5,"componentType":5126,"count":232,"max":[0.8792521357536316,0.9805806875228882,1],"min":[-0.8792521357536316,-0.9805806875228882,-1],"type":"VEC3"},{"bufferView":6,"componentType":5126,"count":232,"max":[0.875,0.8148437738418579],"min":[0,0],"type":"VEC2"},{"bufferView":7,"componentType":5123,"count":336,"max":[231],"min":[0],"type":"SCALAR"},{"bufferView":8,"componentType":5126,"count":228,"max":[0.06367513537406921,1.7333332300186157,0.03333333507180214],"min":[-0.06367513537406921,1.1666666269302368,-0.03333333507180214],"type":"VEC3"},{"bufferView":9,"componentType":5126,"count":228,"max":[0.8412665128707886,0.8878352046012878,1],"min":[-0.8412665128707886,-1,-1],"type":"VEC3"},{"bufferView":10,"componentType":5126,"count":228,"max":[0.8828125,0.8828125],"min":[0,0],"type":"VEC2"},{"bufferView":11,"componentType":5123,"count":324,"max":[227],"min":[0],"type":"SCALAR"}],"materials":[{"pbrMetallicRoughness":{"metallicFactor":0,"roughnessFactor":1,"baseColorTexture":{"index":0}},"alphaMode":"MASK","alphaCutoff":0.05,"doubleSided":true}],"textures":[{"sampler":0,"source":0}],"samplers":[{"magFilter":9728,"minFilter":9728,"wrapS":33071,"wrapT":33071}],"images":[{"mimeType":"image/png","uri":"data:image/png;base64,"}],"meshes":[{"primitives":[{"mode":4,"attributes":{"POSITION":0,"NORMAL":1,"TEXCOORD_0":2},"indices":3,"material":0}]},{"primitives":[{"mode":4,"attributes":{"POSITION":4,"NORMAL":5,"TEXCOORD_0":6},"indices":7,"material":0}]},{"primitives":[{"mode":4,"attributes":{"POSITION":8,"NORMAL":9,"TEXCOORD_0":10},"indices":11,"material":0}]}]}