{"asset":{"version":"2.0","generator":"Blockbench 4.9.4 glTF exporter"},"scenes":[{"nodes":[1],"name":"blockbench_export"}],"scene":0,"nodes":[{"translation":[7.322534672632868e-18,0.10216783032056709,-5.372963333908132e-19],"name":"goop","mesh":0},{"children":[0]}],"bufferViews":[{"buffer":0,"byteOffset":0,"byteLength":2592,"target":34962,"byteStride":12},{"buffer":0,"byteOffset":2592,"byteLength":2592,"target":34962,"byteStride":12},{"buffer":0,"byteOffset":5184,"byteLength":1728,"target":34962,"byteStride":8},{"buffer":0,"byteOffset":6912,"byteLength":576,"target":34963}],"buffers":[{"byteLength":7488,"uri":"data:application/octet-stream;base64,"}],"accessors":[{"bufferView":0,"componentType":5126,"count":216,"max":[0.03247595205903053,-0.07500000298023224,0.05408217012882233],"min":[-0.03247595205903053,-0.125,-0.08279283344745636],"type":"VEC3"},{"bufferView":1,"componentType":5126,"count":216,"max":[0.9840807318687439,0.9413509368896484,0.941493570804596],"min":[-0.9840807318687439,-0.9413509368896484,-0.9700875282287598],"type":"VEC3"},{"bufferView":2,"componentType":5126,"count":216,"max":[0.390625,0.5114821791648865],"min":[0,0],"type":"VEC2"},{"bufferView":3,"componentType":5123,"count":288,"max":[215],"min":[0],"type":"SCALAR"}],"materials":[{"pbrMetallicRoughness":{"metallicFactor":0,"roughnessFactor":1,"baseColorTexture":{"index":0}},"alphaMode":"MASK","alphaCutoff":0.05,"doubleSided":true}],"textures":[{"sampler":0,"source":0}],"samplers":[{"magFilter":9728,"minFilter":9728,"wrapS":33071,"wrapT":33071}],"images":[{"mimeType":"image/png","uri":"data:image/png;base64,"}],"meshes":[{"primitives":[{"mode":4,"attributes":{"POSITION":0,"NORMAL":1,"TEXCOORD_0":2},"indices":3,"material":0}]}]}