{"asset":{"version":"2.0","generator":"Blockbench 4.9.4 glTF exporter"},"scenes":[{"nodes":[1],"name":"blockbench_export"}],"scene":0,"nodes":[{"rotation":[0.5000000000000019,-0.4999999999999981,-0.5000000000000018,0.49999999999999817],"translation":[-2.4019248128909636e-18,4.536969091016265e-18,-2.405337506007182e-18],"name":"sphere","mesh":0},{"children":[0]}],"bufferViews":[{"buffer":0,"byteOffset":0,"byteLength":1296,"target":34962,"byteStride":12},{"buffer":0,"byteOffset":1296,"byteLength":1296,"target":34962,"byteStride":12},{"buffer":0,"byteOffset":2592,"byteLength":864,"target":34962,"byteStride":8},{"buffer":0,"byteOffset":3456,"byteLength":288,"target":34963}],"buffers":[{"byteLength":3744,"uri":"data:application/octet-stream;base64,"}],"accessors":[{"bufferView":0,"componentType":5126,"count":108,"max":[0.02812499925494194,0.029175395146012306,0.026225952431559563],"min":[-0.02812499925494194,-0.03113710507750511,-0.026225952431559563],"type":"VEC3"},{"bufferView":1,"componentType":5126,"count":108,"max":[0.852610170841217,0.7432738542556763,0.9525341987609863],"min":[-0.852610170841217,-0.9171018600463867,-0.9525341987609863],"type":"VEC3"},{"bufferView":2,"componentType":5126,"count":108,"max":[0.27812498807907104,0.4375],"min":[0,0],"type":"VEC2"},{"bufferView":3,"componentType":5123,"count":144,"max":[107],"min":[0],"type":"SCALAR"}],"materials":[{"pbrMetallicRoughness":{"metallicFactor":0,"roughnessFactor":1,"baseColorTexture":{"index":0}},"alphaMode":"MASK","alphaCutoff":0.05,"doubleSided":true}],"textures":[{"sampler":0,"source":0}],"samplers":[{"magFilter":9728,"minFilter":9728,"wrapS":33071,"wrapT":33071}],"images":[{"mimeType":"image/png","uri":"data:image/png;base64,"}],"meshes":[{"primitives":[{"mode":4,"attributes":{"POSITION":0,"NORMAL":1,"TEXCOORD_0":2},"indices":3,"material":0}]}]}