{"asset":{"version":"2.0","generator":"Blockbench 4.9.4 glTF exporter"},"scenes":[{"nodes":[3],"name":"blockbench_export"}],"scene":0,"nodes":[{"translation":[0,0,6.711298183859071e-19],"name":"ashes_1","mesh":0},{"translation":[1.60133548578108e-19,-2.7950583024542484e-18,-1.552810168030138e-18],"name":"ashes_2","mesh":1},{"name":"ashes_3","mesh":2},{"children":[0,1,2]}],"bufferViews":[{"buffer":0,"byteOffset":0,"byteLength":864,"target":34962,"byteStride":12},{"buffer":0,"byteOffset":864,"byteLength":864,"target":34962,"byteStride":12},{"buffer":0,"byteOffset":1728,"byteLength":576,"target":34962,"byteStride":8},{"buffer":0,"byteOffset":2304,"byteLength":216,"target":34963},{"buffer":0,"byteOffset":2520,"byteLength":768,"target":34962,"byteStride":12},{"buffer":0,"byteOffset":3288,"byteLength":768,"target":34962,"byteStride":12},{"buffer":0,"byteOffset":4056,"byteLength":512,"target":34962,"byteStride":8},{"buffer":0,"byteOffset":4568,"byteLength":180,"target":34963},{"buffer":0,"byteOffset":4748,"byteLength":768,"target":34962,"byteStride":12},{"buffer":0,"byteOffset":5516,"byteLength":768,"target":34962,"byteStride":12},{"buffer":0,"byteOffset":6284,"byteLength":512,"target":34962,"byteStride":8},{"buffer":0,"byteOffset":6796,"byteLength":180,"target":34963}],"buffers":[{"byteLength":6976,"uri":"data:application/octet-stream;base64,"}],"accessors":[{"bufferView":0,"componentType":5126,"count":72,"max":[0.01759915053844452,0.06983239948749542,0.02059129998087883],"min":[-0.012011555023491383,-0.06983239948749542,-0.02059129998087883],"type":"VEC3"},{"bufferView":1,"componentType":5126,"count":72,"max":[0.9780897498130798,0.276347815990448,0.9761181473731995],"min":[-0.9002698659896851,-0.397118479013443,-0.9714297652244568],"type":"VEC3"},{"bufferView":2,"componentType":5126,"count":72,"max":[0.765625,0.765625],"min":[0,0.125],"type":"VEC2"},{"bufferView":3,"componentType":5123,"count":108,"max":[71],"min":[0],"type":"SCALAR"},{"bufferView":4,"componentType":5126,"count":64,"max":[0.021733786910772324,0.0555892214179039,0.024425674229860306],"min":[-0.02335827238857746,-0.057963404804468155,-0.023394864052534103],"type":"VEC3"},{"bufferView":5,"componentType":5126,"count":64,"max":[0.9480568766593933,0.7151809930801392,0.9742825031280518],"min":[-0.9749860167503357,-0.677427351474762,-0.9109117984771729],"type":"VEC3"},{"bufferView":6,"componentType":5126,"count":64,"max":[0.765625,0.828125],"min":[0,0],"type":"VEC2"},{"bufferView":7,"componentType":5123,"count":90,"max":[63],"min":[0],"type":"SCALAR"},{"bufferView":8,"componentType":5126,"count":64,"max":[0.029124999418854713,0.06698689609766006,0.027672844007611275],"min":[-0.022572288289666176,-0.06209375709295273,-0.02646428532898426],"type":"VEC3"},{"bufferView":9,"componentType":5126,"count":64,"max":[0.7804075479507446,0.6929715871810913,0.9009124636650085],"min":[-0.8491386771202087,-0.9291268587112427,-0.9323575496673584],"type":"VEC3"},{"bufferView":10,"componentType":5126,"count":64,"max":[0.637793779373169,0.6602937579154968],"min":[0,0],"type":"VEC2"},{"bufferView":11,"componentType":5123,"count":90,"max":[63],"min":[0],"type":"SCALAR"}],"materials":[{"pbrMetallicRoughness":{"metallicFactor":0,"roughnessFactor":1,"baseColorTexture":{"index":0}},"alphaMode":"MASK","alphaCutoff":0.05,"doubleSided":true}],"textures":[{"sampler":0,"source":0}],"samplers":[{"magFilter":9728,"minFilter":9728,"wrapS":33071,"wrapT":33071}],"images":[{"mimeType":"image/png","uri":"data:image/png;base64,"}],"meshes":[{"primitives":[{"mode":4,"attributes":{"POSITION":0,"NORMAL":1,"TEXCOORD_0":2},"indices":3,"material":0}]},{"primitives":[{"mode":4,"attributes":{"POSITION":4,"NORMAL":5,"TEXCOORD_0":6},"indices":7,"material":0}]},{"primitives":[{"mode":4,"attributes":{"POSITION":8,"NORMAL":9,"TEXCOORD_0":10},"indices":11,"material":0}]}]}