{"asset":{"version":"2.0","generator":"Blockbench 4.9.4 glTF exporter"},"scenes":[{"nodes":[3],"name":"blockbench_export"}],"scene":0,"nodes":[{"translation":[2.8912057932946786e-18,2.3129646346357427e-18,-7.228014483236697e-19],"name":"ember_1","mesh":0},{"translation":[-2.3129646346357427e-18,-6.938893903907228e-18,-1.6383499495336511e-18],"name":"ember_2","mesh":1},{"translation":[-2.6688053476566264e-19,1.734723475976807e-18,-1.0675221390626506e-18],"name":"ember_3","mesh":2},{"children":[0,1,2]}],"bufferViews":[{"buffer":0,"byteOffset":0,"byteLength":576,"target":34962,"byteStride":12},{"buffer":0,"byteOffset":576,"byteLength":576,"target":34962,"byteStride":12},{"buffer":0,"byteOffset":1152,"byteLength":384,"target":34962,"byteStride":8},{"buffer":0,"byteOffset":1536,"byteLength":120,"target":34963},{"buffer":0,"byteOffset":1656,"byteLength":912,"target":34962,"byteStride":12},{"buffer":0,"byteOffset":2568,"byteLength":912,"target":34962,"byteStride":12},{"buffer":0,"byteOffset":3480,"byteLength":608,"target":34962,"byteStride":8},{"buffer":0,"byteOffset":4088,"byteLength":192,"target":34963},{"buffer":0,"byteOffset":4280,"byteLength":1152,"target":34962,"byteStride":12},{"buffer":0,"byteOffset":5432,"byteLength":1152,"target":34962,"byteStride":12},{"buffer":0,"byteOffset":6584,"byteLength":768,"target":34962,"byteStride":8},{"buffer":0,"byteOffset":7352,"byteLength":288,"target":34963}],"buffers":[{"byteLength":7640,"uri":"data:application/octet-stream;base64,"}],"accessors":[{"bufferView":0,"componentType":5126,"count":48,"max":[0.04603419452905655,0.0971904769539833,0.03753618896007538],"min":[-0.044833481311798096,-0.07994155585765839,-0.038072895258665085],"type":"VEC3"},{"bufferView":1,"componentType":5126,"count":48,"max":[0.9486323595046997,0.6704108715057373,0.865096390247345],"min":[-0.8816747069358826,-0.650709867477417,-0.9700697660446167],"type":"VEC3"},{"bufferView":2,"componentType":5126,"count":48,"max":[0.8144546151161194,0.6875],"min":[0.00225828611291945,0],"type":"VEC2"},{"bufferView":3,"componentType":5123,"count":60,"max":[47],"min":[0],"type":"SCALAR"},{"bufferView":4,"componentType":5126,"count":76,"max":[0.039068080484867096,0.09985551238059998,0.022774262353777885],"min":[-0.03827747702598572,-0.07325281947851181,-0.03769517317414284],"type":"VEC3"},{"bufferView":5,"componentType":5126,"count":76,"max":[0.9729386568069458,0.5471385717391968,0.9887662529945374],"min":[-0.9826260805130005,-0.8246018290519714,-0.9953625202178955],"type":"VEC3"},{"bufferView":6,"componentType":5126,"count":76,"max":[0.84375,0.890625],"min":[0,0],"type":"VEC2"},{"bufferView":7,"componentType":5123,"count":96,"max":[75],"min":[0],"type":"SCALAR"},{"bufferView":8,"componentType":5126,"count":96,"max":[0.031108053401112556,0.08973594009876251,0.03624711558222771],"min":[-0.032141946256160736,-0.07076093554496765,-0.030956009402871132],"type":"VEC3"},{"bufferView":9,"componentType":5126,"count":96,"max":[1,0.9701424837112427,0.9913330078125],"min":[-0.9502920508384705,-0.991633951663971,-0.9337013959884644],"type":"VEC3"},{"bufferView":10,"componentType":5126,"count":96,"max":[0.747310221195221,0.8492125272750854],"min":[0.125,0],"type":"VEC2"},{"bufferView":11,"componentType":5123,"count":144,"max":[95],"min":[0],"type":"SCALAR"}],"materials":[{"pbrMetallicRoughness":{"metallicFactor":0,"roughnessFactor":1,"baseColorTexture":{"index":0}},"alphaMode":"MASK","alphaCutoff":0.05,"doubleSided":true}],"textures":[{"sampler":0,"source":0}],"samplers":[{"magFilter":9728,"minFilter":9728,"wrapS":33071,"wrapT":33071}],"images":[{"mimeType":"image/png","uri":"data:image/png;base64,"}],"meshes":[{"primitives":[{"mode":4,"attributes":{"POSITION":0,"NORMAL":1,"TEXCOORD_0":2},"indices":3,"material":0}]},{"primitives":[{"mode":4,"attributes":{"POSITION":4,"NORMAL":5,"TEXCOORD_0":6},"indices":7,"material":0}]},{"primitives":[{"mode":4,"attributes":{"POSITION":8,"NORMAL":9,"TEXCOORD_0":10},"indices":11,"material":0}]}]}