{"asset":{"version":"2.0","generator":"Blockbench 4.9.4 glTF exporter"},"scenes":[{"nodes":[1],"name":"blockbench_export"}],"scene":0,"nodes":[{"name":"MagicPew"},{"translation":[2.2992453003948914e-8,1.4971742950386293e-8,0.0045041783358969155],"name":"MagicPew","mesh":0,"children":[0],"skin":0}],"bufferViews":[{"buffer":0,"byteOffset":0,"byteLength":1872,"target":34962,"byteStride":12},{"buffer":0,"byteOffset":1872,"byteLength":1872,"target":34962,"byteStride":12},{"buffer":0,"byteOffset":3744,"byteLength":1248,"target":34962,"byteStride":8},{"buffer":0,"byteOffset":4992,"byteLength":1248,"target":34962,"byteStride":8},{"buffer":0,"byteOffset":6240,"byteLength":2496,"target":34962,"byteStride":16},{"buffer":0,"byteOffset":8736,"byteLength":432,"target":34963},{"buffer":0,"byteOffset":9168,"byteLength":64}],"buffers":[{"byteLength":9232,"uri":"data:application/octet-stream;base64,"}],"accessors":[{"bufferView":0,"componentType":5126,"count":156,"max":[0.06922061741352081,0.0692206397652626,0.10433101654052734],"min":[-0.06922070682048798,-0.06922067701816559,-0.09274085611104965],"type":"VEC3"},{"bufferView":1,"componentType":5126,"count":156,"max":[0.921667218208313,0.9932243824005127,0.6456887722015381],"min":[-0.921667218208313,-0.9932258725166321,-0.9036532044410706],"type":"VEC3"},{"bufferView":2,"componentType":5126,"count":156,"max":[0.6860560178756714,0.78125],"min":[0,0],"type":"VEC2"},{"bufferView":3,"componentType":5123,"count":156,"max":[0,0,0,0],"min":[0,0,0,0],"type":"VEC4"},{"bufferView":4,"componentType":5126,"count":156,"max":[0,1,0,0],"min":[0,1,0,0],"type":"VEC4"},{"bufferView":5,"componentType":5123,"count":216,"max":[155],"min":[0],"type":"SCALAR"},{"bufferView":6,"componentType":5126,"count":1,"max":[1,0,0,0,0,1,0,0,0,0,1,0,0,0,0,1],"min":[1,0,0,0,0,1,0,0,0,0,1,0,0,0,0,1],"type":"MAT4"}],"materials":[{"pbrMetallicRoughness":{"metallicFactor":0,"roughnessFactor":1,"baseColorTexture":{"index":0}},"alphaMode":"MASK","alphaCutoff":0.05,"doubleSided":true}],"textures":[{"sampler":0,"source":0}],"samplers":[{"magFilter":9728,"minFilter":9728,"wrapS":33071,"wrapT":33071}],"images":[{"mimeType":"image/png","uri":"data:image/png;base64,"}],"meshes":[{"primitives":[{"mode":4,"attributes":{"POSITION":0,"NORMAL":1,"TEXCOORD_0":2,"JOINTS_0":3,"WEIGHTS_0":4},"indices":5,"material":0}]}],"skins":[{"inverseBindMatrices":6,"joints":[0],"skeleton":0}]}