{"asset":{"version":"2.0","generator":"Blockbench 4.9.4 glTF exporter"},"scenes":[{"nodes":[1],"name":"blockbench_export"}],"scene":0,"nodes":[{"translation":[1.2453806102316974e-17,2.9058880905406275e-17,1.2453806102316974e-17],"name":"sparklie","mesh":0},{"children":[0]}],"bufferViews":[{"buffer":0,"byteOffset":0,"byteLength":2208,"target":34962,"byteStride":12},{"buffer":0,"byteOffset":2208,"byteLength":2208,"target":34962,"byteStride":12},{"buffer":0,"byteOffset":4416,"byteLength":1472,"target":34962,"byteStride":8},{"buffer":0,"byteOffset":5888,"byteLength":480,"target":34963}],"buffers":[{"byteLength":6368,"uri":"data:application/octet-stream;base64,"}],"accessors":[{"bufferView":0,"componentType":5126,"count":184,"max":[0.09045244753360748,0.06780145317316055,0.11270945519208908],"min":[-0.08627596497535706,-0.06611006706953049,-0.06411388516426086],"type":"VEC3"},{"bufferView":1,"componentType":5126,"count":184,"max":[0.8946478962898254,0.9015891551971436,0.9099857807159424],"min":[-0.9346559643745422,-0.8760329484939575,-0.9144338369369507],"type":"VEC3"},{"bufferView":2,"componentType":5126,"count":184,"max":[0.953125,0.9451402425765991],"min":[0,0],"type":"VEC2"},{"bufferView":3,"componentType":5123,"count":240,"max":[183],"min":[0],"type":"SCALAR"}],"materials":[{"pbrMetallicRoughness":{"metallicFactor":0,"roughnessFactor":1,"baseColorTexture":{"index":0}},"alphaMode":"MASK","alphaCutoff":0.05,"doubleSided":true}],"textures":[{"sampler":0,"source":0}],"samplers":[{"magFilter":9728,"minFilter":9728,"wrapS":33071,"wrapT":33071}],"images":[{"mimeType":"image/png","uri":"data:image/png;base64,"}],"meshes":[{"primitives":[{"mode":4,"attributes":{"POSITION":0,"NORMAL":1,"TEXCOORD_0":2},"indices":3,"material":0}]}]}