{"asset":{"version":"2.0","generator":"Blockbench 4.9.4 glTF exporter"},"scenes":[{"nodes":[1],"name":"blockbench_export"}],"scene":0,"nodes":[{"translation":[0,-0.015625,0],"name":"bonfire","mesh":0},{"children":[0]}],"bufferViews":[{"buffer":0,"byteOffset":0,"byteLength":7680,"target":34962,"byteStride":12},{"buffer":0,"byteOffset":7680,"byteLength":7680,"target":34962,"byteStride":12},{"buffer":0,"byteOffset":15360,"byteLength":5120,"target":34962,"byteStride":8},{"buffer":0,"byteOffset":20480,"byteLength":1848,"target":34963}],"buffers":[{"byteLength":22328,"uri":"data:application/octet-stream;base64,"}],"accessors":[{"bufferView":0,"componentType":5126,"count":640,"max":[0.4992252588272095,0.2582806646823883,0.453125],"min":[-0.4992252588272095,-0.046875,-0.453125],"type":"VEC3"},{"bufferView":1,"componentType":5126,"count":640,"max":[0.9610558748245239,1,1],"min":[-0.9537169337272644,-1,-1],"type":"VEC3"},{"bufferView":2,"componentType":5126,"count":640,"max":[0.6119217276573181,0.56640625],"min":[0,0],"type":"VEC2"},{"bufferView":3,"componentType":5123,"count":924,"max":[639],"min":[0],"type":"SCALAR"}],"materials":[{"pbrMetallicRoughness":{"metallicFactor":0,"roughnessFactor":1,"baseColorTexture":{"index":0}},"alphaMode":"MASK","alphaCutoff":0.05,"doubleSided":true}],"textures":[{"sampler":0,"source":0}],"samplers":[{"magFilter":9728,"minFilter":9728,"wrapS":33071,"wrapT":33071}],"images":[{"mimeType":"image/png","uri":"data:image/png;base64,"}],"meshes":[{"primitives":[{"mode":4,"attributes":{"POSITION":0,"NORMAL":1,"TEXCOORD_0":2},"indices":3,"material":0}]}]}