{"asset":{"version":"2.0","generator":"Blockbench 4.9.4 glTF exporter"},"scenes":[{"nodes":[3],"name":"blockbench_export"}],"scene":0,"nodes":[{"translation":[0.084375,0.2546874999999998,0.023905676810435986],"name":"Discarded"},{"name":"Bonfire","children":[0]},{"name":"Mesh_Bonfire","children":[1]},{"translation":[0,-0.015625,0],"name":"Mesh_Bonfire","mesh":0,"children":[2],"skin":0}],"bufferViews":[{"buffer":0,"byteOffset":0,"byteLength":21432,"target":34962,"byteStride":12},{"buffer":0,"byteOffset":21432,"byteLength":21432,"target":34962,"byteStride":12},{"buffer":0,"byteOffset":42864,"byteLength":14288,"target":34962,"byteStride":8},{"buffer":0,"byteOffset":57152,"byteLength":14288,"target":34962,"byteStride":8},{"buffer":0,"byteOffset":71440,"byteLength":28576,"target":34962,"byteStride":16},{"buffer":0,"byteOffset":100016,"byteLength":5112,"target":34963},{"buffer":0,"byteOffset":105128,"byteLength":192}],"buffers":[{"byteLength":105320,"uri":"data:application/octet-stream;base64,"}],"accessors":[{"bufferView":0,"componentType":5126,"count":1786,"max":[0.4992252588272095,0.8243198394775391,0.453125],"min":[-0.4992252588272095,-0.046875,-0.453125],"type":"VEC3"},{"bufferView":1,"componentType":5126,"count":1786,"max":[0.9610558748245239,1,1],"min":[-0.9975705742835999,-1,-1],"type":"VEC3"},{"bufferView":2,"componentType":5126,"count":1786,"max":[0.71865314245224,0.6953125],"min":[0,0],"type":"VEC2"},{"bufferView":3,"componentType":5123,"count":1786,"max":[0,2,0,0],"min":[0,1,0,0],"type":"VEC4"},{"bufferView":4,"componentType":5126,"count":1786,"max":[0,1,0,0],"min":[0,1,0,0],"type":"VEC4"},{"bufferView":5,"componentType":5123,"count":2556,"max":[1785],"min":[0],"type":"SCALAR"},{"bufferView":6,"componentType":5126,"count":3,"max":[1,0,0,0,0,1,0,0,0,0,1,0,0,0,0,1],"min":[1,0,0,0,0,1,0,0,0,0,1,0,-0.08437500149011612,-0.25468748807907104,-0.02390567772090435,1],"type":"MAT4"}],"materials":[{"pbrMetallicRoughness":{"metallicFactor":0,"roughnessFactor":1,"baseColorTexture":{"index":0}},"alphaMode":"MASK","alphaCutoff":0.05,"doubleSided":true}],"textures":[{"sampler":0,"source":0}],"samplers":[{"magFilter":9728,"minFilter":9728,"wrapS":33071,"wrapT":33071}],"images":[{"mimeType":"image/png","uri":"data:image/png;base64,"}],"meshes":[{"primitives":[{"mode":4,"attributes":{"POSITION":0,"NORMAL":1,"TEXCOORD_0":2,"JOINTS_0":3,"WEIGHTS_0":4},"indices":5,"material":0}]}],"skins":[{"inverseBindMatrices":6,"joints":[2,1,0],"skeleton":2}]}