{"asset":{"version":"2.0","generator":"Blockbench 4.9.4 glTF exporter"},"scenes":[{"nodes":[25],"name":"blockbench_export"}],"scene":0,"nodes":[{"translation":[-0.4065,-0.5615,-1.36625],"name":"Mandible_L"},{"translation":[0.4065,-0.5615,-1.36625],"name":"Mandible_R"},{"translation":[-0.19290865384615444,0.08834134615384581,-1.2349759615384635],"name":"Eye_UL"},{"translation":[0.19290865384615438,0.08834134615384581,-1.2349759615384635],"name":"Eye_UR"},{"translation":[-0.3007965578938915,-0.21274487409038412,-1.452168746198561],"name":"Eye_LL"},{"translation":[0.3007965578938915,-0.21274487409038412,-1.452168746198561],"name":"Eye_LR"},{"translation":[3.7347001663853407e-17,-0.2532652243589739,-0.8915264423076916],"name":"Skull","children":[0,1,2,3,4,5]},{"translation":[0,2.1875028485758086,0.42130573481266165],"name":"BootyShooter"},{"translation":[5.984593809896676e-18,0.008109775641026218,1.0756610576923085],"name":"Booty","children":[7]},{"translation":[-1.5345630749025602e-17,1.518890224358974,-0.10066105769230835],"name":"Torso","children":[6,8]},{"translation":[2.0006710814314053,-1.908763111888111,5.551115123125783e-16],"name":"Toesie_FR"},{"translation":[0.39375,1.9375,-0.5274585082878583],"name":"Leggie_FR","children":[10]},{"translation":[-2.0006710814314053,-1.908763111888111,5.551115123125783e-16],"name":"Toesie_FL"},{"translation":[-0.39375,1.9375,-0.5274585082878583],"name":"Leggie_FL","children":[12]},{"translation":[1.03971875,0.023447741712141257,-2.6196875000000004],"name":"Toesie_FR_claw"},{"translation":[2.1875,0,-0.9375],"name":"Leggie_FR_Claw","children":[14]},{"translation":[0.39374999999999993,1.234375,-0.6055835082878582],"name":"Leggie_FR_Shoulder","children":[15]},{"translation":[-1.03971875,0.023447741712141257,-2.6196875000000004],"name":"Toesie_FL_claw"},{"translation":[-2.1875,0,-0.9375],"name":"Leggie_FL_Claw","children":[17]},{"translation":[-0.39374999999999993,1.234375,-0.6055835082878582],"name":"Leggie_FL_Shoulder","children":[18]},{"translation":[-1.4249574710025088,-1.9165756118881092,1.443702881283246],"name":"Toesie_RL"},{"translation":[-0.39375,1.9375,0.625],"name":"Leggie_RL","children":[20]},{"translation":[1.4249574710025088,-1.8853256118881092,1.443702881283246],"name":"Toesie_RR"},{"translation":[0.39375,1.90625,0.625],"name":"Leggie_RR","children":[22]},{"name":"ActorMesh","children":[9,11,13,16,19,21,23]},{"name":"ActorMesh","mesh":0,"children":[24],"skin":0}],"bufferViews":[{"buffer":0,"byteOffset":0,"byteLength":15384,"target":34962,"byteStride":12},{"buffer":0,"byteOffset":15384,"byteLength":15384,"target":34962,"byteStride":12},{"buffer":0,"byteOffset":30768,"byteLength":10256,"target":34962,"byteStride":8},{"buffer":0,"byteOffset":41024,"byteLength":10256,"target":34962,"byteStride":8},{"buffer":0,"byteOffset":51280,"byteLength":20512,"target":34962,"byteStride":16},{"buffer":0,"byteOffset":71792,"byteLength":3504,"target":34963},{"buffer":0,"byteOffset":75296,"byteLength":1600}],"buffers":[{"byteLength":76896,"uri":"data:application/octet-stream;base64,"}],"accessors":[{"bufferView":0,"componentType":5126,"count":1282,"max":[3.7937684059143066,3.7911181449890137,3.022597074508667],"min":[-3.7937684059143066,0.023437557741999626,-4.214958667755127],"type":"VEC3"},{"bufferView":1,"componentType":5126,"count":1282,"max":[1,1,1],"min":[-1,-1,-1],"type":"VEC3"},{"bufferView":2,"componentType":5126,"count":1282,"max":[0.931640625,0.9322500228881836],"min":[0,0],"type":"VEC2"},{"bufferView":3,"componentType":5123,"count":1282,"max":[0,23,0,0],"min":[0,1,0,0],"type":"VEC4"},{"bufferView":4,"componentType":5126,"count":1282,"max":[0,1,0,0],"min":[0,1,0,0],"type":"VEC4"},{"bufferView":5,"componentType":5123,"count":1752,"max":[1281],"min":[0],"type":"SCALAR"},{"bufferView":6,"componentType":5126,"count":25,"max":[1,0,0,0,0,1,0,0,0,0,1,0,3.620968818664551,0,4.162771224975586,1],"min":[1,0,0,0,0,1,0,0,0,0,1,0,-3.620968818664551,-3.7145028114318848,-2.0687029361724854,1],"type":"MAT4"}],"materials":[{"pbrMetallicRoughness":{"metallicFactor":0,"roughnessFactor":1,"baseColorTexture":{"index":0}},"alphaMode":"MASK","alphaCutoff":0.05,"doubleSided":true}],"textures":[{"sampler":0,"source":0}],"samplers":[{"magFilter":9728,"minFilter":9728,"wrapS":33071,"wrapT":33071}],"images":[{"mimeType":"image/png","uri":"data:image/png;base64,"}],"meshes":[{"primitives":[{"mode":4,"attributes":{"POSITION":0,"NORMAL":1,"TEXCOORD_0":2,"JOINTS_0":3,"WEIGHTS_0":4},"indices":5,"material":0}]}],"skins":[{"inverseBindMatrices":6,"joints":[24,9,6,0,1,2,3,4,5,8,7,11,10,13,12,16,15,14,19,18,17,21,20,23,22],"skeleton":24}]}