{"asset":{"version":"2.0","generator":"Blockbench 4.9.4 glTF exporter"},"scenes":[{"nodes":[2],"name":"blockbench_export"}],"scene":0,"nodes":[{"translation":[-2.6433881538694174e-17,-1.3547364288580778e-16,-0.2863675191135436],"name":"Gem"},{"name":"Sward_Bone","children":[0]},{"translation":[-4.0790025346655965e-18,1.5457373411955938e-16,0.7095818048278293],"name":"Sward_Bone","mesh":0,"children":[1],"skin":0}],"bufferViews":[{"buffer":0,"byteOffset":0,"byteLength":15168,"target":34962,"byteStride":12},{"buffer":0,"byteOffset":15168,"byteLength":15168,"target":34962,"byteStride":12},{"buffer":0,"byteOffset":30336,"byteLength":10112,"target":34962,"byteStride":8},{"buffer":0,"byteOffset":40448,"byteLength":10112,"target":34962,"byteStride":8},{"buffer":0,"byteOffset":50560,"byteLength":20224,"target":34962,"byteStride":16},{"buffer":0,"byteOffset":70784,"byteLength":3672,"target":34963},{"buffer":0,"byteOffset":74456,"byteLength":128}],"buffers":[{"byteLength":74584,"uri":"data:application/octet-stream;base64,"}],"accessors":[{"bufferView":0,"componentType":5126,"count":1264,"max":[0.375,0.05416666343808174,0.35708487033843994],"min":[-0.375,-0.05416666343808174,-2.5970818996429443],"type":"VEC3"},{"bufferView":1,"componentType":5126,"count":1264,"max":[0.9743912220001221,1,1],"min":[-0.9743912220001221,-1,-1],"type":"VEC3"},{"bufferView":2,"componentType":5126,"count":1264,"max":[0.9375,0.921875],"min":[0,0],"type":"VEC2"},{"bufferView":3,"componentType":5123,"count":1264,"max":[0,1,0,0],"min":[0,0,0,0],"type":"VEC4"},{"bufferView":4,"componentType":5126,"count":1264,"max":[0,1,0,0],"min":[0,1,0,0],"type":"VEC4"},{"bufferView":5,"componentType":5123,"count":1836,"max":[1263],"min":[0],"type":"SCALAR"},{"bufferView":6,"componentType":5126,"count":2,"max":[1,0,0,0,0,1,0,0,0,0,1,0,2.643388161747331e-17,1.3547364225557494e-16,0.2863675057888031,1],"min":[1,0,0,0,0,1,0,0,0,0,1,0,0,0,0,1],"type":"MAT4"}],"materials":[{"pbrMetallicRoughness":{"metallicFactor":0,"roughnessFactor":1,"baseColorTexture":{"index":0}},"alphaMode":"MASK","alphaCutoff":0.05,"doubleSided":true}],"textures":[{"sampler":0,"source":0}],"samplers":[{"magFilter":9728,"minFilter":9728,"wrapS":33071,"wrapT":33071}],"images":[{"mimeType":"image/png","uri":"data:image/png;base64,"}],"meshes":[{"primitives":[{"mode":4,"attributes":{"POSITION":0,"NORMAL":1,"TEXCOORD_0":2,"JOINTS_0":3,"WEIGHTS_0":4},"indices":5,"material":0}]}],"skins":[{"inverseBindMatrices":6,"joints":[1,0],"skeleton":1}]}