{"asset":{"version":"2.0","generator":"Blockbench 4.9.4 glTF exporter"},"scenes":[{"nodes":[1],"name":"blockbench_export"}],"scene":0,"nodes":[{"name":"Sward_Bone"},{"translation":[-4.0790025346655965e-18,1.5457373411955938e-16,0.7095818048278293],"name":"Sward_Bone","mesh":0,"children":[0],"skin":0}],"bufferViews":[{"buffer":0,"byteOffset":0,"byteLength":8064,"target":34962,"byteStride":12},{"buffer":0,"byteOffset":8064,"byteLength":8064,"target":34962,"byteStride":12},{"buffer":0,"byteOffset":16128,"byteLength":5376,"target":34962,"byteStride":8},{"buffer":0,"byteOffset":21504,"byteLength":5376,"target":34962,"byteStride":8},{"buffer":0,"byteOffset":26880,"byteLength":10752,"target":34962,"byteStride":16},{"buffer":0,"byteOffset":37632,"byteLength":1896,"target":34963},{"buffer":0,"byteOffset":39528,"byteLength":64}],"buffers":[{"byteLength":39592,"uri":"data:application/octet-stream;base64,"}],"accessors":[{"bufferView":0,"componentType":5126,"count":672,"max":[0.375,0.05416666343808174,0.35708487033843994],"min":[-0.375,-0.05416666343808174,-2.3470818996429443],"type":"VEC3"},{"bufferView":1,"componentType":5126,"count":672,"max":[0.9743912220001221,1,1],"min":[-0.9743912220001221,-1,-1],"type":"VEC3"},{"bufferView":2,"componentType":5126,"count":672,"max":[0.9375,0.921875],"min":[0,0],"type":"VEC2"},{"bufferView":3,"componentType":5123,"count":672,"max":[0,0,0,0],"min":[0,0,0,0],"type":"VEC4"},{"bufferView":4,"componentType":5126,"count":672,"max":[0,1,0,0],"min":[0,1,0,0],"type":"VEC4"},{"bufferView":5,"componentType":5123,"count":948,"max":[671],"min":[0],"type":"SCALAR"},{"bufferView":6,"componentType":5126,"count":1,"max":[1,0,0,0,0,1,0,0,0,0,1,0,0,0,0,1],"min":[1,0,0,0,0,1,0,0,0,0,1,0,0,0,0,1],"type":"MAT4"}],"materials":[{"pbrMetallicRoughness":{"metallicFactor":0,"roughnessFactor":1,"baseColorTexture":{"index":0}},"alphaMode":"MASK","alphaCutoff":0.05,"doubleSided":true}],"textures":[{"sampler":0,"source":0}],"samplers":[{"magFilter":9728,"minFilter":9728,"wrapS":33071,"wrapT":33071}],"images":[{"mimeType":"image/png","uri":"data:image/png;base64,"}],"meshes":[{"primitives":[{"mode":4,"attributes":{"POSITION":0,"NORMAL":1,"TEXCOORD_0":2,"JOINTS_0":3,"WEIGHTS_0":4},"indices":5,"material":0}]}],"skins":[{"inverseBindMatrices":6,"joints":[0],"skeleton":0}]}