{"asset":{"version":"2.0","generator":"Blockbench 4.9.4 glTF exporter"},"scenes":[{"nodes":[5],"name":"blockbench_export"}],"scene":0,"nodes":[{"rotation":[0,0.7071067811865475,0,0.7071067811865476],"translation":[-4.0790025346655965e-18,1.5457373411955938e-16,0.7095818048278293],"name":"gem","mesh":0},{"translation":[-4.0790025346655965e-18,1.5457373411955938e-16,0.7095818048278293],"name":"blade","mesh":1},{"translation":[-4.0790025346655965e-18,1.5457373411955938e-16,0.7095818048278293],"name":"crossguard","mesh":2},{"rotation":[0.7071067811865475,0,0,0.7071067811865476],"translation":[-4.0790025346655965e-18,1.5457373411955938e-16,0.7095818048278293],"name":"hilt","mesh":3},{"translation":[-4.0790025346655965e-18,1.5457373411955938e-16,0.7095818048278293],"name":"bone"},{"children":[0,1,2,3,4]}],"bufferViews":[{"buffer":0,"byteOffset":0,"byteLength":720,"target":34962,"byteStride":12},{"buffer":0,"byteOffset":720,"byteLength":720,"target":34962,"byteStride":12},{"buffer":0,"byteOffset":1440,"byteLength":480,"target":34962,"byteStride":8},{"buffer":0,"byteOffset":1920,"byteLength":144,"target":34963},{"buffer":0,"byteOffset":2064,"byteLength":1824,"target":34962,"byteStride":12},{"buffer":0,"byteOffset":3888,"byteLength":1824,"target":34962,"byteStride":12},{"buffer":0,"byteOffset":5712,"byteLength":1216,"target":34962,"byteStride":8},{"buffer":0,"byteOffset":6928,"byteLength":432,"target":34963},{"buffer":0,"byteOffset":7360,"byteLength":2784,"target":34962,"byteStride":12},{"buffer":0,"byteOffset":10144,"byteLength":2784,"target":34962,"byteStride":12},{"buffer":0,"byteOffset":12928,"byteLength":1856,"target":34962,"byteStride":8},{"buffer":0,"byteOffset":14784,"byteLength":672,"target":34963},{"buffer":0,"byteOffset":15456,"byteLength":2736,"target":34962,"byteStride":12},{"buffer":0,"byteOffset":18192,"byteLength":2736,"target":34962,"byteStride":12},{"buffer":0,"byteOffset":20928,"byteLength":1824,"target":34962,"byteStride":8},{"buffer":0,"byteOffset":22752,"byteLength":648,"target":34963}],"buffers":[{"byteLength":23400,"uri":"data:application/octet-stream;base64,"}],"accessors":[{"bufferView":0,"componentType":5126,"count":60,"max":[0.3470818102359772,0.05416666343808174,0.04567301645874977],"min":[0.192915141582489,-0.05416666343808174,-0.04567301645874977],"type":"VEC3"},{"bufferView":1,"componentType":5126,"count":60,"max":[0.8601441383361816,0.9635151624679565,0.9743912220001221],"min":[-0.41410374641418457,-0.9635151624679565,-0.9743912220001221],"type":"VEC3"},{"bufferView":2,"componentType":5126,"count":60,"max":[0.625,0.565625011920929],"min":[0,0],"type":"VEC2"},{"bufferView":3,"componentType":5123,"count":72,"max":[59],"min":[0],"type":"SCALAR"},{"bufferView":4,"componentType":5126,"count":152,"max":[0.09166666865348816,0.041665446013212204,-0.3262484669685364],"min":[-0.09166666865348816,-0.04166627302765846,-2.5970818996429443],"type":"VEC3"},{"bufferView":5,"componentType":5126,"count":152,"max":[0.764445424079895,0.7399659752845764,0.033766962587833405],"min":[-0.764445424079895,-0.7399400472640991,-0.2068396508693695],"type":"VEC3"},{"bufferView":6,"componentType":5126,"count":152,"max":[0.7859460115432739,0.7615593671798706],"min":[0,0],"type":"VEC2"},{"bufferView":7,"componentType":5123,"count":216,"max":[151],"min":[0],"type":"SCALAR"},{"bufferView":8,"componentType":5126,"count":232,"max":[0.375,0.05000000074505806,-0.16791515052318573],"min":[-0.375,-0.05000000074505806,-0.473015695810318],"type":"VEC3"},{"bufferView":9,"componentType":5126,"count":232,"max":[0.8792521357536316,0.9805806875228882,1],"min":[-0.8792521357536316,-0.9805806875228882,-1],"type":"VEC3"},{"bufferView":10,"componentType":5126,"count":232,"max":[0.875,0.8148437738418579],"min":[0,0],"type":"VEC2"},{"bufferView":11,"componentType":5123,"count":336,"max":[231],"min":[0],"type":"SCALAR"},{"bufferView":12,"componentType":5126,"count":228,"max":[0.06367513537406921,0.35708487033843994,0.03333333507180214],"min":[-0.06367513537406921,-0.20958180725574493,-0.03333333507180214],"type":"VEC3"},{"bufferView":13,"componentType":5126,"count":228,"max":[0.8412665128707886,0.8878352046012878,1],"min":[-0.8412665128707886,-1,-1],"type":"VEC3"},{"bufferView":14,"componentType":5126,"count":228,"max":[0.8828125,0.8828125],"min":[0,0],"type":"VEC2"},{"bufferView":15,"componentType":5123,"count":324,"max":[227],"min":[0],"type":"SCALAR"}],"materials":[{"pbrMetallicRoughness":{"metallicFactor":0,"roughnessFactor":1,"baseColorTexture":{"index":0}},"alphaMode":"MASK","alphaCutoff":0.05,"doubleSided":true},{"pbrMetallicRoughness":{"metallicFactor":0,"roughnessFactor":1,"baseColorTexture":{"index":1}},"alphaMode":"MASK","alphaCutoff":0.05,"doubleSided":true}],"textures":[{"sampler":0,"source":0},{"sampler":1,"source":1}],"samplers":[{"magFilter":9728,"minFilter":9728,"wrapS":33071,"wrapT":33071},{"magFilter":9728,"minFilter":9728,"wrapS":33071,"wrapT":33071}],"images":[{"mimeType":"image/png","uri":"data:image/png;base64,"},{"mimeType":"image/png","uri":"data:image/png;base64,"}],"meshes":[{"primitives":[{"mode":4,"attributes":{"POSITION":0,"NORMAL":1,"TEXCOORD_0":2},"indices":3,"material":0}]},{"primitives":[{"mode":4,"attributes":{"POSITION":4,"NORMAL":5,"TEXCOORD_0":6},"indices":7,"material":1}]},{"primitives":[{"mode":4,"attributes":{"POSITION":8,"NORMAL":9,"TEXCOORD_0":10},"indices":11,"material":1}]},{"primitives":[{"mode":4,"attributes":{"POSITION":12,"NORMAL":13,"TEXCOORD_0":14},"indices":15,"material":1}]}]}