{"asset":{"version":"2.0","generator":"Blockbench 4.9.4 glTF exporter"},"scenes":[{"nodes":[0,2],"name":"blockbench_export"}],"scene":0,"nodes":[{"rotation":[0,0.7071067811865475,0,0.7071067811865476],"translation":[-4.0790025346655965e-18,1.5457373411955938e-16,0.7095818048278293],"name":"gem","mesh":0},{"name":"Sward_Bone"},{"translation":[-4.0790025346655965e-18,1.5457373411955938e-16,0.7095818048278293],"name":"Sward_Bone","mesh":1,"children":[1],"skin":0}],"bufferViews":[{"buffer":0,"byteOffset":0,"byteLength":720,"target":34962,"byteStride":12},{"buffer":0,"byteOffset":720,"byteLength":720,"target":34962,"byteStride":12},{"buffer":0,"byteOffset":1440,"byteLength":480,"target":34962,"byteStride":8},{"buffer":0,"byteOffset":1920,"byteLength":144,"target":34963},{"buffer":0,"byteOffset":2064,"byteLength":7344,"target":34962,"byteStride":12},{"buffer":0,"byteOffset":9408,"byteLength":7344,"target":34962,"byteStride":12},{"buffer":0,"byteOffset":16752,"byteLength":4896,"target":34962,"byteStride":8},{"buffer":0,"byteOffset":21648,"byteLength":4896,"target":34962,"byteStride":8},{"buffer":0,"byteOffset":26544,"byteLength":9792,"target":34962,"byteStride":16},{"buffer":0,"byteOffset":36336,"byteLength":1752,"target":34963},{"buffer":0,"byteOffset":38088,"byteLength":64}],"buffers":[{"byteLength":38152,"uri":"data:application/octet-stream;base64,"}],"accessors":[{"bufferView":0,"componentType":5126,"count":60,"max":[0.3470818102359772,0.05416666343808174,0.04567301645874977],"min":[0.192915141582489,-0.05416666343808174,-0.04567301645874977],"type":"VEC3"},{"bufferView":1,"componentType":5126,"count":60,"max":[0.8601441383361816,0.9635151624679565,0.9743912220001221],"min":[-0.41410374641418457,-0.9635151624679565,-0.9743912220001221],"type":"VEC3"},{"bufferView":2,"componentType":5126,"count":60,"max":[0.625,0.565625011920929],"min":[0,0],"type":"VEC2"},{"bufferView":3,"componentType":5123,"count":72,"max":[59],"min":[0],"type":"SCALAR"},{"bufferView":4,"componentType":5126,"count":612,"max":[0.375,0.05000000074505806,0.35708487033843994],"min":[-0.375,-0.05000000074505806,-2.5970818996429443],"type":"VEC3"},{"bufferView":5,"componentType":5126,"count":612,"max":[0.8792521357536316,1,1],"min":[-0.8792521357536316,-1,-1],"type":"VEC3"},{"bufferView":6,"componentType":5126,"count":612,"max":[0.8828125,0.8828125],"min":[0,0],"type":"VEC2"},{"bufferView":7,"componentType":5123,"count":612,"max":[0,0,0,0],"min":[0,0,0,0],"type":"VEC4"},{"bufferView":8,"componentType":5126,"count":612,"max":[0,1,0,0],"min":[0,1,0,0],"type":"VEC4"},{"bufferView":9,"componentType":5123,"count":876,"max":[611],"min":[0],"type":"SCALAR"},{"bufferView":10,"componentType":5126,"count":1,"max":[1,0,0,0,0,1,0,0,0,0,1,0,0,0,0,1],"min":[1,0,0,0,0,1,0,0,0,0,1,0,0,0,0,1],"type":"MAT4"}],"materials":[{"pbrMetallicRoughness":{"metallicFactor":0,"roughnessFactor":1,"baseColorTexture":{"index":0}},"alphaMode":"MASK","alphaCutoff":0.05,"doubleSided":true},{"pbrMetallicRoughness":{"metallicFactor":0,"roughnessFactor":1,"baseColorTexture":{"index":1}},"alphaMode":"MASK","alphaCutoff":0.05,"doubleSided":true}],"textures":[{"sampler":0,"source":0},{"sampler":1,"source":1}],"samplers":[{"magFilter":9728,"minFilter":9728,"wrapS":33071,"wrapT":33071},{"magFilter":9728,"minFilter":9728,"wrapS":33071,"wrapT":33071}],"images":[{"mimeType":"image/png","uri":"data:image/png;base64,"},{"mimeType":"image/png","uri":"data:image/png;base64,"}],"meshes":[{"primitives":[{"mode":4,"attributes":{"POSITION":0,"NORMAL":1,"TEXCOORD_0":2},"indices":3,"material":0}]},{"primitives":[{"mode":4,"attributes":{"POSITION":4,"NORMAL":5,"TEXCOORD_0":6,"JOINTS_0":7,"WEIGHTS_0":8},"indices":9,"material":1}]}],"skins":[{"inverseBindMatrices":10,"joints":[1],"skeleton":1}]}